<svg id="Layer_1" data-name="Layer 1" xmlns="http://www.w3.org/2000/svg" xmlns:xlink="http://www.w3.org/1999/xlink" viewBox="0 0 949.8 661.5"><defs><linearGradient id="linear-gradient" x1="585.64" y1="845.42" x2="585.64" y2="431.55" gradientTransform="translate(-125.1 -301.85)" gradientUnits="userSpaceOnUse"><stop offset="0" stop-color="gray" stop-opacity="0.25"/><stop offset="0.54" stop-color="gray" stop-opacity="0.12"/><stop offset="1" stop-color="gray" stop-opacity="0.1"/></linearGradient><linearGradient id="linear-gradient-2" x1="266.15" y1="669.72" x2="266.15" y2="669.5" xlink:href="#linear-gradient"/><linearGradient id="linear-gradient-3" x1="252.63" y1="787.79" x2="252.63" y2="453.5" xlink:href="#linear-gradient"/><linearGradient id="linear-gradient-4" x1="852.71" y1="784.58" x2="852.71" y2="377.47" xlink:href="#linear-gradient"/></defs><title>Artboard 1</title><circle cx="95.1" cy="66" r="46.5" fill="#192080"/><path d="M89.5,160.7c19.5,44.1-5.4,94.9-34.7,133.1-9.8,12.8-20.6,26.3-22,42.3-1.6,19.7,11.7,37.8,27.5,49.6,28.8,21.5,68.2,28.2,102.5,17.3,29.6-9.4,54.6-30.6,84.5-39.1,50-14.3,103,9.4,145.8,39,30.3,20.9,62.8,46.4,99.3,41.9,25.7-3.2,47.5-21.2,62.3-42.5,7.2-10.3,13.4-21.8,23.8-28.7,6.2-4.1,13.5-6.3,20.7-7.9,66.4-14.2,136.8,20.4,202.4,2.6,44.3-12,79.5-47,101.5-87.3s32.2-85.7,40.7-130.8c6.1-32,11.1-66.6-2.8-96C926.1,23.2,892,4.3,857.7.8S789,7,757.4,20.8C718,38,679.3,62.2,636.2,62.3c-29.3.1-57.3-11.2-85.4-19.8C503.9,28.1,455.2,21,406.6,14.4,360,8.1,313,2.2,266.2,6c-33.1,2.6-62.4,15.3-94.5,21.1-21,3.8-42,1-62.6,7.4C83.8,42.4,57.7,60.8,56.3,89.7,55.1,117.2,79.1,137.3,89.5,160.7Z" fill="#6c63ff" opacity="0.1" style="isolation:isolate"/><path d="M601.9,199.9c-4.3-11.1-15.3-37.3-22.5-32.1-9.2,6.6,9.2,35.5,9.2,35.5.5,5.3-9.8,16.4-15.3,21.9v-.7c-.1.2-.1.4-.2.6l-.5-.3a2.52,2.52,0,0,1-.7,1.2v-1.2c-1.1,4.5-19.6,10.2-19.6,10.2h-1.4c-5.1,0-18.5-1.2-24.7-11.1a52.93,52.93,0,0,0-12.1-14.1,10.39,10.39,0,0,0-5.8-2.2c-17.1-1.1-31-9.8-33.8-11.6l-.5-.4-.1.3A29,29,0,0,1,472,193h0l-.3-.5a24.87,24.87,0,0,0,13.8-22.3v-.5a17.31,17.31,0,0,0,2.3-8.6v-3l3.9-3.5a15.84,15.84,0,0,0,4.5-5.5,6.63,6.63,0,0,0,.5-2.8,4.69,4.69,0,0,0-1.8-4.3c-3-2.1-8,0-10.2-2.9-1-1.3-.8-3.1-1.3-4.6-1-3.1-4.6-4.8-7.9-4.8s-6.5,1.2-9.7,2.1a55.54,55.54,0,0,1-20.7,1.9,13.71,13.71,0,0,0-5.7.2,7.67,7.67,0,0,0-4.6,5.3,12.59,12.59,0,0,0-.4,2.7,17,17,0,0,0-4.3,11.4V161a17.1,17.1,0,0,0,4.2,11.2,24.8,24.8,0,0,0,10.5,18.2v.6l.1.1a43.6,43.6,0,0,1-1.1,7.1v-.5s-14,7.5-29,7.6h-1.7a11.25,11.25,0,0,0-8,3c-4.4,4.2-12.2,10.8-17,10.8-1,0-26.2,4.9-30.4,5.8l-7.8-7.6-.2.5-.5-.5a18.66,18.66,0,0,0-2.5.4c-4-4.7-12-15.8-13.9-30.5,0,0,17.3-19.7,10.9-38-5.4-15.6-20.4,17.9-24.6,28a8.66,8.66,0,0,0-.3,5.5l14,45.2a21.68,21.68,0,0,0-1.1,11h-.2L341.7,252s7.7,3.3,19.7,3.2a70.29,70.29,0,0,0,25.7-4.9h2.4l-.5.2h12.2l7.7,23.4c-.3,2.1-4,31.9-7,38.5a16.68,16.68,0,0,0-1.2,7,56,56,0,0,0,2.2,13.5l6.8-.3-.3.5c-5.7,11.8-15.3,32.7-21,52.3l-9.9,20,7.4,89.7h.3l.6.1h0c.8.1,2,.3,3.6.5l-.6,1-16.3,27s-11.6,23.8,14.1,19.3c0,0,9.5-2.8,13.4-19l16.9-15.9s.8-10.5-4-14.8c-.3-4.9-1.1-19.1.1-22.5,1.4-4.1-6-51.8-6-51.8s26.8-55.5,43-56.9a8.28,8.28,0,0,1,3.5.5c13.3,4.3,29.5,36.6,34.2,46.6h0l.2.5v.1l.2.4v.1l.2.3v.1l.1.3v.1l.1.3v.1l.1.2v.1l.1.1v.2h0v.1l2.1,62.5h0l.2.1h.1l-.2,1.3-.9,6.5s11.6,24.5,10.9,27.6,7.8,15.5,19.7,12.1,4.9-22.9,4.9-22.9L515,475.6l-.5-1.1a24.28,24.28,0,0,0,3.2-2.4s-3.5-25.5,0-31,4.6-30.7,4.6-30.7-2.5-17.3-6.7-24.8l-17.7-63.3c5.3,4.9,9.4,6.9,12.9,6.7h.6a8.12,8.12,0,0,0,4.3-1.1,14.29,14.29,0,0,0,2-1.4l.3-.3h0c4.9-4.1-5.6-20.4-11.6-30-5.8-9.3,2.2-34.6,2.8-36.5a9.5,9.5,0,0,1,1.7-1,13,13,0,0,1,3.9-.9c5.7.2,12.8,3.5,21.5,5.2a103,103,0,0,0,18.4,1.4h.4c2.5,0,4.7,0,6.5-.1a11.43,11.43,0,0,0,4.7-1.3h0a12.22,12.22,0,0,0,3.3-2.7L584.9,243l-.4.2a9.12,9.12,0,0,0,0-6.1l16.2-28A9.26,9.26,0,0,0,601.9,199.9Z" fill="url(#linear-gradient)"/><path d="M419.8,505.9l-16.3,15.7c-3.7,16-12.9,18.7-12.9,18.7-24.8,4.4-13.6-19-13.6-19l15.8-26.7,1.9-3.3s11.2-3.4,18.7-1.4a6.21,6.21,0,0,1,2.5,1.4C420.6,495.4,419.8,505.9,419.8,505.9Z" fill="#444176"/><path d="M520.5,519.9c-11.6,3.4-19.7-8.8-19-11.9s-10.6-27.2-10.6-27.2l.9-6.4.8-5.9,19,1.4,1.8,3.8,11.1,23.5C524.5,497.1,532,516.5,520.5,519.9Z" fill="#444176"/><path d="M416,494c-1.8,3.1-16.3,1.5-23.4.6l1.9-3.3s11.2-3.4,18.7-1.4a6.21,6.21,0,0,1,2.5,1.4A17.27,17.27,0,0,1,416,494Z" opacity="0.1" style="isolation:isolate"/><path d="M513.4,473.6c-9.7,6.5-20.1,1.6-21.7.8l.8-5.9,19,1.4Z" opacity="0.1" style="isolation:isolate"/><path d="M516.1,439.6c-3.4,5.4,0,30.6,0,30.6-11.2,10.2-24.5,2.7-24.5,2.7l-2-61.6s-22.1-50.7-37.8-49.3-41.5,56.1-41.5,56.1,7.1,46.9,5.8,51,0,23.8,0,23.8c-2.4,4.1-27.2,0-27.2,0l-7.1-88.5,9.5-19.7c5.5-19.3,14.7-40,20.3-51.6,2.8-5.8,4.6-9.3,4.6-9.3l18.1-3.8,58.8-12.2,21.1,76.8c4.1,7.5,6.5,24.5,6.5,24.5S519.5,434.1,516.1,439.6Z" fill="#565387"/><g opacity="0.1"><path d="M497,472.9l-2-61.6s-22.1-50.7-37.8-49.3a6.53,6.53,0,0,0-2,.5c15.3,5.1,34.4,48.9,34.4,48.9l2,61.6a24.39,24.39,0,0,0,13.5,2.5A28.43,28.43,0,0,1,497,472.9Z"/><path d="M394.3,493l-7.1-88.5,9.5-19.8c5.5-19.3,14.7-40,20.3-51.6,2.8-5.8,4.6-9.3,4.6-9.3l18.1-3.8,53.6-11.1-.3-1.1L434.2,320l-18.1,3.8s-1.8,3.5-4.6,9.3c-5.6,11.6-14.8,32.3-20.3,51.6l-9.5,19.7,7.1,88.5s13.6,2.2,21.6,1.7A143.88,143.88,0,0,1,394.3,493Z"/></g><path d="M352.9,219s-19.4,1-16.7,21.4l5.4.7,8.2-8.8,4.1-7.5v-1.7Z" fill="#ced2df"/><path d="M352.9,219s-19.4,1-16.7,21.4l5.4.7,8.2-8.8,4.1-7.5v-1.7Z" opacity="0.1" style="isolation:isolate"/><path d="M568.6,226.4s16,8.5,11.9,18.4l-5.1,2-6.8-3.7-1-8.8.7-6.1Z" fill="#ced2df"/><path d="M568.6,226.4s16,8.5,11.9,18.4l-5.1,2-6.8-3.7-1-8.8.7-6.1Z" opacity="0.1" style="isolation:isolate"/><path d="M452.3,138.7h13.6A21.1,21.1,0,0,1,487,159.8h0a21.1,21.1,0,0,1-21.1,21.1H452.3a21.1,21.1,0,0,1-21.1-21.1h0A21,21,0,0,1,452.3,138.7Z" fill="#88455e"/><path d="M352.8,221.9l-11.9,19-1-3.4-16.2-52.7a7.5,7.5,0,0,1,.3-5.5c4.1-9.9,18.5-43,23.7-27.5,6.1,18-10.5,37.4-10.5,37.4,1.9,15.8,10.8,27.2,14.2,31.1C352.2,221.3,352.8,221.9,352.8,221.9Z" fill="#ec8c9c"/><path d="M566.1,230s18.7-17.7,18-24.8c0,0-17.7-28.6-8.8-35,7-5.1,17.6,20.7,21.8,31.6a10.88,10.88,0,0,1-.7,9L574,250.4Z" fill="#ec8c9c"/><path d="M444.9,180.7s3.4,21.8-6.5,29.9,28.2,8.1,28.2,8.1l13.6-12.6s-15.7-14.6-10.9-25.5Z" fill="#ec8c9c"/><path d="M444.3,205.5s14.6,10.9,29.3-1.4l23.8,49.3L496,313.6s-49.3,25.5-69.7,9.9-3.4-23.8-3.4-23.8l-4.8-46.3,5.1-29.9s9.2-14.3,9.9-14.3S444.3,205.5,444.3,205.5Z" opacity="0.1" style="isolation:isolate"/><path d="M444.3,204.8s14.6,10.9,29.3-1.4l23.8,49.3L496,313s-49.3,25.5-69.7,9.9-3.4-23.8-3.4-23.8l-4.8-46.3,5.1-29.9s9.2-14.3,9.9-14.3S444.3,204.8,444.3,204.8Z" fill="#ebf1f6"/><path d="M444.3,199.8s-13.9,7.9-28.9,7.5a10.88,10.88,0,0,0-7.7,2.9c-4.3,4.1-11.8,10.6-16.5,10.6-1,0-29.9,5.8-29.9,5.8l-7.6-7.6s-11.4,22.3-16.8,21.3l9.9,12.9s18.7,8.2,43.2-1.7h14.3l7.5,23.1s-3.7,31.3-6.8,38.1,1,20.1,1,20.1l26.9-1s1.4-13.3,3.4-15-7.1-60.2-7.1-60.2-6.1-33,16.3-44.9Z" opacity="0.1" style="isolation:isolate"/><path d="M434.1,320.1a83.14,83.14,0,0,0-2.1,12.3l-20.6.8c2.8-5.8,4.6-9.3,4.6-9.3Z" opacity="0.1" style="isolation:isolate"/><path d="M352.8,221.9l-11.9,19-1-3.4c4.4-4.3,9.5-13.4,11.5-17.2C352.2,221.3,352.8,221.9,352.8,221.9Z" opacity="0.1" style="isolation:isolate"/><path d="M444.3,199.8s-14.6,7.9-29.6,7.5a10.88,10.88,0,0,0-7.7,2.9c-4.3,4.1-11.8,10.6-16.5,10.6-1,0-29.9,5.8-29.9,5.8l-7.7-7.7s-11.4,22.3-16.8,21.3l9.9,12.9s18.7,8.2,43.2-1.7h14.3l7.5,23.1s-3.7,31.3-6.8,38.1,1,20.1,1,20.1l26.9-1s1.4-13.3,3.4-15-7.1-60.2-7.1-60.2-6.1-33,16.3-44.9Z" fill="#ced2df"/><path d="M473.5,197.7s13.9,10.6,32.4,11.8a9.81,9.81,0,0,1,5.5,2.1,54.22,54.22,0,0,1,11.7,14c7.5,12.3,25.8,10.9,25.8,10.9s17.9-5.6,18.9-10c0,0,.5,24,11.7,18.2l-14.8,17a10.35,10.35,0,0,1-7.5,3.6c-5.5.2-15.2.3-23.3-1.3-12.3-2.4-21.1-8.2-27.6-3.1,0,0-8.5,26.5-2.7,36.1s16,25.5,11.2,29.6-10.6,3.7-20.1-6.1S484.5,294,484.5,294l2.4-42.9s-9.2-32.3-18-38.8Z" opacity="0.1" style="isolation:isolate"/><path d="M581,244.3l-14.8,17.1a12.16,12.16,0,0,1-3.6,2.7h0a10.13,10.13,0,0,1-3.9.9c-5.5.2-15.2.3-23.3-1.3-11.5-2.2-19.9-7.4-26.3-3.9a5.08,5.08,0,0,0-1.3.9s-8.5,26.5-2.7,36.1,16,25.5,11.2,29.6a9.48,9.48,0,0,1-2.7,1.7c-4.3,1.9-9.6.3-17.4-7.9-9.5-9.9-10.5-26.5-10.5-26.5l2.4-42.9s-9.2-32.3-18-38.8l3.9-14c2.7,1.8,16.1,10.4,32.6,11.5a10.41,10.41,0,0,1,5.6,2.1,54.22,54.22,0,0,1,11.7,14c7.5,12.3,25.8,10.9,25.8,10.9a101.68,101.68,0,0,0,12.9-5.1h0c2.6-1.3,4.9-2.7,6-4a4.73,4.73,0,0,0,.7-1.2S569.8,250.1,581,244.3Z" opacity="0.1" style="isolation:isolate"/><path d="M580.3,244.7l-14.8,17.1a10.91,10.91,0,0,1-2.9,2.3h0a10.57,10.57,0,0,1-4.5,1.3c-5.5.2-15.2.3-23.3-1.3-11-2.1-19.3-7.1-25.6-4.3a8.17,8.17,0,0,0-2,1.2s-8.5,26.5-2.7,36.1,16,25.5,11.2,29.6a14.29,14.29,0,0,1-2,1.4c-4.4,2.4-9.8,1-18.1-7.5-9.5-9.9-10.5-26.5-10.5-26.5l2.4-42.9s-9.2-32.3-18-38.8l4.1-14.6.5.3c2.7,1.8,16.1,10.4,32.6,11.5a10.41,10.41,0,0,1,5.6,2.1,54.22,54.22,0,0,1,11.7,14c7.5,12.3,25.8,10.9,25.8,10.9a101.68,101.68,0,0,0,12.9-5.1h0c3.1-1.6,5.6-3.3,6-4.9v.9C568.9,231.5,570.4,249.8,580.3,244.7Z" fill="#ced2df"/><path d="M469.7,181.2h-25a68.88,68.88,0,0,1,.5,12,25.61,25.61,0,0,0,26.4,1.9C469.2,190.7,467.8,185.6,469.7,181.2Z" opacity="0.1" style="isolation:isolate"/><circle cx="459.9" cy="172.5" r="24.8" fill="#ec8c9c"/><path d="M454.8,168.1c2.8-.3,5.5-1.3,8.3-.8,2.5.5,4.6,2.2,7.1,2.7,4.8,1,9.2-2.5,12.8-5.8l7.8-7.1c1.7-1.6,3.5-3.2,4.4-5.4s.6-5-1.3-6.4c-2.8-2-7.8,0-9.8-2.8-.9-1.3-.8-3-1.3-4.5-1-3.1-4.4-4.7-7.7-4.8s-6.3,1.1-9.4,2a54.12,54.12,0,0,1-20,1.9,12.78,12.78,0,0,0-5.5.2,7.59,7.59,0,0,0-4.4,5.3c-1.5,5.4,1.1,14.2,3.7,19.1S449.5,168.8,454.8,168.1Z" opacity="0.1" style="isolation:isolate"/><path d="M454.8,167.4c2.8-.3,5.5-1.3,8.3-.8,2.5.5,4.6,2.2,7.1,2.7,4.8,1,9.2-2.5,12.8-5.8l7.8-7.1c1.7-1.6,3.5-3.2,4.4-5.4s.6-5-1.3-6.4c-2.8-2-7.8,0-9.8-2.8-.9-1.3-.8-3-1.3-4.5-1-3.1-4.4-4.7-7.7-4.8s-6.3,1.1-9.4,2a54.12,54.12,0,0,1-20,1.9,12.78,12.78,0,0,0-5.5.2,7.59,7.59,0,0,0-4.4,5.3c-1.5,5.4,1.1,14.2,3.7,19.1S449.5,168,454.8,167.4Z" fill="#88455e"/><path d="M411.4,274.8s5.4.7,8.2,4.1a14.88,14.88,0,0,0,7.5,4.4" opacity="0.1" style="isolation:isolate"/><path d="M362.5,229.8s4.4,9.9,1.7,10.9-1.7,8.2-1.7,8.2" opacity="0.1" style="isolation:isolate"/><g opacity="0.1"><path d="M364,226.4s28.9-5.8,29.9-5.8c4.7,0,12.2-6.5,16.5-10.6a11.41,11.41,0,0,1,4.7-2.6h-.4a10.88,10.88,0,0,0-7.7,2.9c-4.3,4.1-11.8,10.6-16.5,10.6-.8,0-19.3,3.7-26.8,5.2Z"/><path d="M444.3,201.2v-1.3a74.84,74.84,0,0,1-22.2,7.1A68.09,68.09,0,0,0,444.3,201.2Z"/><path d="M408.6,332.6s-4.1-13.3-1-20.1,6.8-38.1,6.8-38.1l-7.5-23.1H392.6l-.9.3h11.8l7.5,23.1s-3.7,31.3-6.8,38.1,1,20.1,1,20.1l26.9-1v-.2Z"/></g><g opacity="0.1"><path d="M516.1,321.2a14.29,14.29,0,0,1-2,1.4c-4.4,2.4-9.8,1-18.1-7.5-7.6-7.8-9.8-20-10.3-24.6l-.2,3.5s1,16.7,10.5,26.5c8.3,8.5,13.7,9.9,18.1,7.5a14.29,14.29,0,0,0,2-1.4c1.4-1.2,1.5-3.5.8-6.4A8.74,8.74,0,0,1,516.1,321.2Z"/><path d="M575.5,245.2l-9.6,11.1a10.91,10.91,0,0,1-2.9,2.3h0a10.57,10.57,0,0,1-4.5,1.3c-5.5.2-15.2.3-23.3-1.3-11-2.1-19.3-7.1-25.6-4.3a8.17,8.17,0,0,0-2,1.2s-5.5,17.1-4.7,28.8c.7-10.9,4.7-23.4,4.7-23.4a8.17,8.17,0,0,1,2-1.2c6.3-2.8,14.5,2.1,25.6,4.3,8.1,1.6,17.8,1.5,23.3,1.3A10.18,10.18,0,0,0,563,264h0a10.91,10.91,0,0,0,2.9-2.3l14.8-17.1A6,6,0,0,1,575.5,245.2Z"/></g><path d="M140.6,367.7a.74.74,0,0,0,.9.1C141.2,367.8,140.9,367.7,140.6,367.7Z" fill="url(#linear-gradient-2)"/><path d="M242.5,202c-1.8-.5-4.4-1.4-7.5-2.5a38.58,38.58,0,0,0,6.9-13.9l-.3.1.3-.9c-5.9,2.4-12.5-1.7-16.7-6.9s-7-11.7-11.6-16.6a60.93,60.93,0,0,0-6.1-5.3c-1.4-1-2.8-2.1-4.5-2.2-2.7-.1-4.8,2.5-7.3,3.3a9.78,9.78,0,0,1-5.1-.2c-6.6-1.5-13-4.3-19.8-5.1a24.27,24.27,0,0,0-10.7,1.2c-3.4,1.3-5,3.9-7.7,5.9-3,2.2-8.9,2.2-12.4,2.5a77.89,77.89,0,0,1-12.8.5,29.79,29.79,0,0,0-7.3.3c-5.1,1.1-9.1,5.1-12.9,9a6.36,6.36,0,0,0-2.1,3.4v1.1a7.89,7.89,0,0,0,.5,3,39.1,39.1,0,0,0,4.9,9.8c1.6,2.2,3.4,4.3,4.2,6.9a13.36,13.36,0,0,1,.6,4,31.25,31.25,0,0,1-.4,4.3,58,58,0,0,1-3.3,11.5,21,21,0,0,0-1.9,6v1.3c-.3,6.6,6.4,11.4,7.7,17.9a8.75,8.75,0,0,1,.2,1.6c-.1,4.1-2.5,8.1-5.9,9.7l.9.3a4.05,4.05,0,0,1-.9.5,13.89,13.89,0,0,0,1.9.6,44.91,44.91,0,0,0-9.7,12C92.3,286.8,13.9,329,13.9,329l1.2.7-.9.6C7.4,334.8-8.5,348,5.9,364.6c0,0,11.2-17.7,19.1-25.3a9,9,0,0,0,1-.9,2.27,2.27,0,0,1,.3,1.8l51.5-29s18.3-12.8,23.4-15.7a44.25,44.25,0,0,1,11.6-5l-.6.3a23.31,23.31,0,0,1,5.9-.8c9.1.1,19,6.8,22.2,33.3,4.4,35.4,2.3,41.8.9,42.7a.9.9,0,0,1-.5-.1l.1.1a1.27,1.27,0,0,1-.6-.1.78.78,0,0,0,.8.2.66.66,0,0,0,.6-.1h.7a3.4,3.4,0,0,1-.1,1c-.1,0-.4.2,0,.2h0c-.1,2-.1,4.2,0,6.4-4.5.3-9.1.5-13,.8l.4-1.9.2-.8c3.5-.3,6.8-1.3,7.2-4.1.9-6.2-7.7-9.5-14.9-9.9s-50.7,2.5-50.7,2.5-6.5,8.4,14.1,11c.6.3,1.3.7,1.9,1,8.1,4.6,19.1,13.1,24.3,17.3l.7.6L110,392c12.8,2.9,25.1,51.7,31.9,74s21.7,21.5,34.1,18.2c11.6-3.1,13-36.7,13.2-40.9v-.4l20.6,25.4,1.6,1.9,1.8.9c15.6,7.4,32.8-6.8,27.9-23s-12.6-40.5-17.8-50.7c-4.3-8.5-9.8-22.8-13.2-31.6.4-.2.9-.4,1.3-.6,0,0-.1-.4-.2-1.1l.2-.1s-5-25.7-5.2-44v-1.6a60.26,60.26,0,0,1,6.1-1.2l.1-.8-.4.1,2.1-23.7s7.6-16.2,1.8-22.9a13.55,13.55,0,0,1-3.4-7c-1-6.2,0-16.5,13.5-25.1,20.9-13.2,29-24,29-24S255.3,205.8,242.5,202Zm-41.4,16.4V207.5c3.9-.2,7.8.3,11.7,0a26.3,26.3,0,0,0,5.6-1l.9.6A92.24,92.24,0,0,1,201.1,218.4ZM142,390.1c1.5,1.1,3.1,2.2,4.6,3.3.9,5.4,1.8,9.2,1.8,9.5A72.86,72.86,0,0,0,142,390.1Z" fill="url(#linear-gradient-3)"/><path d="M175,381.1l-.9,4.9-.7,3.7-1.3,6.8L159.9,405s-1.1-.9-2.9-2.4c-5-4.1-15.5-12.5-23.3-17a25,25,0,0,0-6.4-3Z" fill="#ffbdc6"/><path d="M175,381.1l-.9,4.9a44,44,0,0,1-8.1-.4l-28.5.4c-1.4-.1-2.6-.2-3.8-.3a25,25,0,0,0-6.4-3Z" opacity="0.1" style="isolation:isolate"/><path d="M166.1,384.8s14.3,2.4,15.1-3.7-7.3-9.3-14.2-9.8-48.5,2.5-48.5,2.5-7.3,9.8,19.1,11.4Z" fill="#7679b4"/><path d="M175,381.1l-.9,4.9-.7,3.7-1.3,6.8L159.9,405s-1.1-.9-2.9-2.4c-5-4.1-15.5-12.5-23.3-17a25,25,0,0,0-6.4-3Z" opacity="0.1" style="isolation:isolate"/><path d="M175,381.1l-.9,4.9a44,44,0,0,1-8.1-.4l-28.5.4c-1.4-.1-2.6-.2-3.8-.3a25,25,0,0,0-6.4-3Z" opacity="0.1" style="isolation:isolate"/><path d="M166.1,384.8s14.3,2.4,15.1-3.7-7.3-9.3-14.2-9.8-48.5,2.5-48.5,2.5-7.3,9.8,19.1,11.4Z" opacity="0.1" style="isolation:isolate"/><rect x="122.7" y="183.9" width="74.5" height="88.4" fill="#a66477"/><rect x="122.7" y="183.9" width="74.5" height="88.4" opacity="0.1" style="isolation:isolate"/><path d="M35.3,335.3a11.78,11.78,0,0,0-4.5,3.2c-7.5,7.4-18.3,24.9-18.3,24.9-13.8-16.4,1.5-29.3,8-33.8,1.6-1.1,2.6-1.7,2.6-1.7Z" fill="#ffbdc6"/><path d="M174.2,211.8s3.7,25.7,16.3,31.8-16.3,17.5-16.3,17.5l-39.5-14.7s22.4-7.3,17.9-28.9Z" fill="#ffbdc6"/><path d="M131.9,366.2l-.9,4.9-.7,3.7-1.3,6.8-12.2,8.5s-1.1-.9-2.9-2.4c-5-4.1-15.5-12.5-23.3-17a25,25,0,0,0-6.4-3Z" fill="#ffbdc6"/><path d="M131.9,366.2l-.9,4.9a44,44,0,0,1-8.1-.4l-28.5.4c-1.4-.1-2.6-.2-3.8-.3a25,25,0,0,0-6.4-3Z" opacity="0.1" style="isolation:isolate"/><path d="M122.9,369.9s14.3,2.4,15.1-3.7-7.3-9.4-14.3-9.8-48.5,2.4-48.5,2.4-7.3,9.8,19.1,11.4Z" fill="#7679b4"/><path d="M130.3,374.9l-1.3,6.8-12.2,8.5s-1.1-.9-2.9-2.4l16.2-13.3Z" opacity="0.1" style="isolation:isolate"/><path d="M210.9,468.1c-.6-.3-1.1-.6-1.7-.9l-1.5-1.9-19.7-25v.4c-.1,4.2-1.5,37.3-12.6,40.3-11.8,3.3-26.1,4.1-32.6-17.9s-18.3-70-30.5-72.9l18.1-14.9s12,14,16.9,27.5c-.2-.9-8.5-39.6-1.6-46.4h59.5s9.2,26.1,15.5,39.1c4.9,10.1,12.3,33.8,17,49.9S225.9,475.4,210.9,468.1Z" fill="#192080"/><path d="M209.2,363.8c-9.2,5.4-49.5,3.2-62.6,2.3l-3.6-.3c-.4,0,.1-.2.1-.2l.4-3.7,9.8-24.8,52.3-30.3c-1.1,3.2-1.4,8.1-1.3,13.7C204.5,338.4,209.2,363.8,209.2,363.8Z" opacity="0.1" style="isolation:isolate"/><path d="M209.2,362.6c-9.2,5.4-49.5,3.2-62.6,2.3l-3.6-.3h-.6l.6-.2,3.2-.9,6.9-27.7,52.3-30.3c-1.1,3.2-1.4,8.1-1.3,13.7C204.5,337.2,209.2,362.6,209.2,362.6Z" fill="#f2f1f2"/><path d="M204.3,319.2c-10.6,2.5-34.1,9.7-43.1,27-6,11.6-11,16.5-14.6,18.6l-3.6-.3.1-.2,3.2-.9,6.9-27.7,52.3-30.3C204.5,308.8,204.2,313.6,204.3,319.2Z" opacity="0.1" style="isolation:isolate"/><path d="M23.1,327.9l12.2,7.3a11.78,11.78,0,0,0-4.5,3.2c-1-3-7.4-7.1-10.3-8.9C22,328.5,23.1,327.9,23.1,327.9Z" opacity="0.1" style="isolation:isolate"/><path d="M140.9,365.1a.76.76,0,0,1-.9-.1A2.77,2.77,0,0,0,140.9,365.1Z" opacity="0.1" style="isolation:isolate"/><path d="M168.5,242s-11,1.2-18.7-6.9c0,0-32.6,9.4-43.6,30.6s-85.9,62.7-85.9,62.7,13,7.3,11.8,11l49.3-28.5s17.5-12.6,22.4-15.5,31.8-20.4,37.5,27.3,0,42,0,42,8.1,2.9,20-20,48.5-28.1,48.5-28.1l2-24s7.3-15.9,1.7-22.6a14.79,14.79,0,0,1-3.3-6.9c-.9-6.1,0-16.3,13-24.7,20-13,27.7-23.6,27.7-23.6s.4-7.7-11.8-11.4-61.9-23.6-61.9-23.6l-1.6,6.9,39.1,27.7s-19.5,15.9-35,15.5C179.5,229.8,182.4,241.6,168.5,242Z" fill="#192080"/><path d="M176.1,223a85.21,85.21,0,0,1-2.3-10l-21.6,5.7a24.14,24.14,0,0,1-.5,12.5,23.3,23.3,0,0,0,24.4-8.2Z" opacity="0.1" style="isolation:isolate"/><circle cx="158.1" cy="207.6" r="23.2" fill="#ffbdc6"/><path d="M170.5,154.8c6.4.7,12.6,3.5,18.9,5a9.08,9.08,0,0,0,4.9.2c2.5-.8,4.5-3.3,7-3.3,1.6,0,3,1.1,4.3,2.1a57.77,57.77,0,0,1,5.9,5.2c4.4,4.8,7.1,11.1,11.1,16.3s10.3,9.2,16,6.8c-3.9,15-16.5,26.5-30.1,27.4-5.5.4-11-.8-16.3.8a14.48,14.48,0,0,1-4.1,1c-3,0-5.5-2.8-7.4-5.5-4.4-6.4-8-13.6-13-19.4-1.6-1.9-3.6-3.8-5.9-4.1s-4.5.8-6.6,1.8c-3.4,1.8-6.9,3.6-9.6,6.7s-4.3,7.6-3.2,11.7c.6,2.2,2,4.2,2,6.5,0,3.7-3.2,6.4-3.9,10-.1,1.5-.2,3-.2,4.6-.3,4.9-3.5,9-6.9,12.1-1.3,1.2-2.8,2.5-3.1,4.4-.3,1.3,0,2.6-.2,3.9-.5,3.2-3.7,4.8-6.5,5.3a18.28,18.28,0,0,1-9.8-1.2c4-1.9,6.4-7.2,5.5-12-1.3-6.6-7.9-11.4-7.3-18.1a20.81,20.81,0,0,1,1.8-6,54,54,0,0,0,3.1-11.3,18.27,18.27,0,0,0-.2-9c-.9-2.6-2.6-4.6-4.1-6.8a38.88,38.88,0,0,1-4.7-9.6,5.82,5.82,0,0,1-.4-3.2,6.31,6.31,0,0,1,2-3.3c3.6-3.8,7.5-7.8,12.4-8.9a27.41,27.41,0,0,1,7-.3,82.45,82.45,0,0,0,12.2-.5c3.3-.4,9-.3,11.8-2.5,2.6-2,4.1-4.5,7.4-5.8A21.76,21.76,0,0,1,170.5,154.8Z" opacity="0.1" style="isolation:isolate"/><path d="M183.4,394.5s13.4,26.5,9.4,34.6" opacity="0.1" style="isolation:isolate"/><path d="M207.8,465.3l-19.7-25v.4s-1.1-8.1,2.6-5.4c8.2,5.9,21.4,15.7,21.6,17.4S209.6,461.2,207.8,465.3Z" opacity="0.1" style="isolation:isolate"/><g opacity="0.1"><path d="M179.9,229.8s1.7,6.9-3.7,10.3c8.3-1.4,8.6-7.9,8.4-10.6A37.08,37.08,0,0,1,179.9,229.8Z"/><path d="M25.2,326.7s74.9-41.5,85.9-62.7c7.9-15.2,26.9-24.3,37-28.3-7.4,2.5-32.2,11.9-41.5,29.9-11,21.2-85.9,62.7-85.9,62.7Z"/><path d="M194.5,226.5c12.8-4,24.9-13.9,24.9-13.9L180.3,185l.9-3.8-3.7-1.5-1.6,6.9L215,214.3A96.55,96.55,0,0,1,194.5,226.5Z"/><path d="M194.7,320.4a100.93,100.93,0,0,1,15.3-3.9l.1-.8A105.09,105.09,0,0,0,194.7,320.4Z"/><path d="M147.3,363.1H147a.76.76,0,0,1-.9-.1,2.77,2.77,0,0,0,.9.1c1.3-.8,3.4-6.9-.9-42.1-4.5-37.6-22.2-34.6-31.8-30.3,9.9-2.7,23.5-.4,27.3,31.9,4.2,35.2,2.2,41.3.9,42.1A9.17,9.17,0,0,0,147.3,363.1Z"/><path d="M142.5,364.7a2.77,2.77,0,0,1-.9-.1A.76.76,0,0,0,142.5,364.7Z"/></g><path d="M170.5,154c6.4.7,12.6,3.5,18.9,5a9.08,9.08,0,0,0,4.9.2c2.5-.8,4.5-3.3,7-3.3,1.6,0,3,1.1,4.3,2.1a57.77,57.77,0,0,1,5.9,5.2c4.4,4.8,7.1,11.1,11.1,16.3s10.3,9.2,16,6.8c-3.9,15-16.5,26.5-30.1,27.4-5.5.4-11-.8-16.3.8a14.48,14.48,0,0,1-4.1,1c-3,0-5.5-2.8-7.4-5.5-4.4-6.4-8-13.6-13-19.4-1.6-1.9-3.6-3.8-5.9-4.1s-4.5.8-6.6,1.8c-3.4,1.8-6.9,3.6-9.6,6.7s-4.3,7.6-3.2,11.7c.6,2.2,2,4.2,2,6.5,0,3.7-3.2,6.4-3.9,10-.1,1.5-.2,3-.2,4.6-.3,4.9-3.5,9-6.9,12.1-1.3,1.2-2.8,2.5-3.1,4.4-.3,1.3,0,2.6-.2,3.9-.5,3.2-3.7,4.8-6.5,5.3a18.28,18.28,0,0,1-9.8-1.2c4-1.9,6.4-7.2,5.5-12-1.3-6.6-7.9-11.4-7.3-18.1a20.81,20.81,0,0,1,1.8-6,54,54,0,0,0,3.1-11.3,18.27,18.27,0,0,0-.2-9c-.9-2.6-2.6-4.6-4.1-6.8a38.88,38.88,0,0,1-4.7-9.6,5.82,5.82,0,0,1-.4-3.2,6.31,6.31,0,0,1,2-3.3c3.6-3.8,7.5-7.8,12.4-8.9a27.41,27.41,0,0,1,7-.3,82.45,82.45,0,0,0,12.2-.5c3.3-.4,9-.3,11.8-2.5,2.6-2,4.1-4.5,7.4-5.8A21.76,21.76,0,0,1,170.5,154Z" fill="#a66477"/><path d="M833.5,101.8h0v-.4a.6.6,0,0,0-.1-.4h-.2v-.8c-.4-9.3-13.2-29-18.4-23.2-4.5,5.1,2.3,17.9,5.8,23.6l.3.5-.2-.1s-14.3,42.7-16,44.3-13.5,35.2-29,39c-3.1.7-5.6,1.4-7.8,2l.2-.6a63.86,63.86,0,0,0,2.7-10c.5-3.6,0-8-1.8-9.8-.9-.9-2-1-2.7-2.4a12.3,12.3,0,0,1-.8-3.9l-1.3-16.2.9-.3c5.6-1.8,11-6,11.6-11.7-.2.1-.4.1-.6.2.1-.3.1-.7.2-1-4.7,1.8-9-3-13.5-5.2-7.4-3.6-15.9-.2-23.5.6-8.7.9-16.9-2.6-25.8-2-4.8.4-10.2,3.6-9.9,8.4.2,2.6,2,4.8,2.8,7.3,1.9,6-2.3,12.1-6.1,17.3-2.5,3.4-4.8,7.5-5.2,11.5-8.6-9-17.9-19.4-19-23.3l-24.9-42.7s-.6.6-1.5,1.6c-.2-.5-.3-1-.5-1.5C646,93.7,637,72.1,625.6,76.1s4.7,26.1,11.8,34.9l1,1.2a3.67,3.67,0,0,1-1.8-.1l27.8,47.7s5,9.1,9.7,11.6c0,0,34.5,43.5,34.9,52.2s15.5,31.9,15.5,31.9,5,37.7-3.8,44.3h1.4c-.4.4-.8.9-1.3,1.4-6.5,7.3-14.9,22.8-3.5,49.3,16.8,39,19.4,54.3,19.4,54.3s-32,1.7-38.3,2.9c-5.6,1.1-27.3,1.9-32.2,2-1.8-2.1-7-6.6-14.1,0-8.8,8.3-15.2,36-15.2,36s-3.4,22.4,8,16.6c0,0,13.5-18.7,17.3-19.5,1.9-.4,3.9-3.2,5.4-5.8h.1c.1,0,.5-.2,1.1-.4h0c2.8-1.1,10.5-3.8,16.6-2.5,3.3.7,17.6.9,32.6.9-3.4,8.1-9.4,29-9.4,29s-2.5,19.5,5.9,18.7c6-.6,15.2-15.9,20-24.7,3.5-2.5,13.5-11.7,20.8-11L805,427.9s11.8-6.6,5.5-28.6c-5-17.5-19.2-53.2-24.8-67.1h0l-.2-.4c-1.4-3.4-2.2-5.4-2.2-5.4h0a84,84,0,0,1-4.5-19.7c0-.5-.1-1.1-.1-1.6a12.81,12.81,0,0,0,2-1.1s-4.6-46.8,0-51.8h0l.1-.1h0V252h0l.1-.1h0l.2-.2h0l.2-.3h0c.3-.3.5-.7.9-1.2h0c2.7-3.9,7.6-12.7,6.2-23.2h0c-.1-.5-.1-.9-.2-1.4h0a26.19,26.19,0,0,0-2.9-8.1c-.2-1.1-.3-2.1-.4-3.2v-2.8a5.9,5.9,0,0,1,.2-1.4V210a.75.75,0,0,1,.1-.5v-.2a4.33,4.33,0,0,1,.1-.5v-.2c.1-.2.1-.5.2-.7v-.1c.1-.2.1-.4.2-.6l.1-.2.2-.5.1-.2a2.19,2.19,0,0,1,.3-.5l.1-.1a2.09,2.09,0,0,1,.4-.6l.1-.2.3-.5.2-.2.3-.4.2-.2.6-.6c5.5-5,29.9-41.9,29.9-41.9s5.9-8.3,5.9-13.7C824.1,147.1,834.6,112.4,833.5,101.8ZM768,411.6c-.6-5.7-1.2-12.7-1.8-20l9.5,14.8S774.8,411,768,411.6Z" fill="url(#linear-gradient-4)"/><path d="M668.7,408.5s-5.7-9-14.3-.8-14.7,35.4-14.7,35.4-3.3,22,7.7,16.3c0,0,13-18.3,16.7-19.1s7.7-11,7.7-11Z" fill="#493545"/><path d="M729.8,430.5s-7.7-3.7-10.2-.8S709,461,709,461s-2.4,18.7,5.7,17.9,22.4-30.2,22.4-30.2Z" fill="#493545"/><path d="M729.8,430.5s-7.7-3.7-10.2-.8S709,461,709,461s-2.4,18.7,5.7,17.9,22.4-30.2,22.4-30.2Z" opacity="0.05" style="isolation:isolate"/><path d="M756.7,375.1l17.5,27.3s-1.2,6.1-11.8,4.9L726.1,430s-3.2,27.8,6.9,25.3c1.6-.4,13-12.2,21.2-11.4l48.1-18.7s11.4-6.5,5.3-28.1-26.3-71.6-26.3-71.6l-31.9,17.9Z" fill="#3e3d77"/><path d="M756.7,375.1l17.5,27.3s-1.2,6.1-11.8,4.9L726.1,430s-3.2,27.8,6.9,25.3c1.6-.4,13-12.2,21.2-11.4l48.1-18.7s11.4-6.5,5.3-28.1-26.3-71.6-26.3-71.6l-31.9,17.9Z" opacity="0.05" style="isolation:isolate"/><path d="M767.7,415.4c2.4,15.5-11.4,16.7-11.4,16.7s-62.3,1.2-69.7-.4-17.1,2.8-17.1,2.8c-12.6-7.7-2.4-26.9-2.4-26.9s26.1-.8,32.2-2,37.1-2.9,37.1-2.9-2.4-15.1-18.7-53.4c-11.1-26-3-41.3,3.4-48.4a26.29,26.29,0,0,1,5.6-4.9l50.1,2.4a48.32,48.32,0,0,0,.3,7.6,80.58,80.58,0,0,0,6.7,25c-2.8,0-21.2,17.1-21.2,17.1S765.2,399.9,767.7,415.4Z" fill="#3e3d77"/><path d="M670.7,409.3s26.1-.8,32.2-2,37.1-2.8,37.1-2.8-2.4-15.1-18.7-53.4c-11.1-26-3-41.3,3.4-48.4a26.29,26.29,0,0,1,5.6-4.9l46.4,2.3v-1.5l-50.1-2.4a26.29,26.29,0,0,0-5.6,4.9c-6.3,7.1-14.4,22.4-3.4,48.4,16.3,38.2,18.8,53.3,18.8,53.3s-31,1.6-37.1,2.8-32.2,2-32.2,2-10.2,19.2,2.4,26.9a8.41,8.41,0,0,1,1-.4C662.1,425.5,670.7,409.3,670.7,409.3Z" opacity="0.1" style="isolation:isolate"/><rect x="720" y="146.6" width="25.3" height="63.9" fill="#493545"/><rect x="720" y="146.6" width="25.3" height="63.9" opacity="0.1" style="isolation:isolate"/><path d="M759.7,137.2a2.83,2.83,0,0,1,2.4,1.5,8,8,0,0,1,.6,3l1.6,19.8a12.17,12.17,0,0,0,.7,3.8c.7,1.3,1.8,1.5,2.7,2.4,1.8,1.7,2.3,6.1,1.8,9.6s-1.7,6.6-2.6,9.8c-1.4,4.6-2.3,9.8-4.2,13.6s-5.4,6-7.6,2.7-1.9-9.8-2.4-15.2c-.7-9-4.2-16.8-4.5-25.8-.2-7.3,1.8-14.2,3-21.1.9-4.8.9-10.6,2.2-14.8C754.5,131.5,756.6,136.3,759.7,137.2Z" fill="#493545"/><path d="M759.7,137.2a2.83,2.83,0,0,1,2.4,1.5,8,8,0,0,1,.6,3l1.6,19.8a12.17,12.17,0,0,0,.7,3.8c.7,1.3,1.8,1.5,2.7,2.4,1.8,1.7,2.3,6.1,1.8,9.6s-1.7,6.6-2.6,9.8c-1.4,4.6-2.3,9.8-4.2,13.6s-5.4,6-7.6,2.7-1.9-9.8-2.4-15.2c-.7-9-4.2-16.8-4.5-25.8-.2-7.3,1.8-14.2,3-21.1.9-4.8.9-10.6,2.2-14.8C754.5,131.5,756.6,136.3,759.7,137.2Z" opacity="0.1" style="isolation:isolate"/><path d="M652.8,109.1l-9.8,8.1s-1.2-1.4-2.9-3.6c-6.8-8.7-22.4-30.4-11.4-34.3s19.8,17.3,22.8,26.1C652.4,107.7,652.8,109.1,652.8,109.1Z" fill="#ec8c9c"/><path d="M829.2,106.3c-4.1,6.1-9.8,0-9.8,0s-.7-1.1-1.8-2.9c-3.3-5.7-9.9-18.2-5.6-23.2,5-5.7,17.4,13.7,17.8,22.8A5.44,5.44,0,0,1,829.2,106.3Z" fill="#ec8c9c"/><path d="M729,172.2s8.2,26.1,5.7,33.8,17.5,16.7,17.5,16.7H775s8.2-16.7,6.1-21.6-19.5-8.5-19.5-8.5-10.2,0-9.8-27.3Z" fill="#ec8c9c"/><path d="M652.8,109.1l-9.8,8.1s-1.2-1.4-2.9-3.6c3.5-.6,9.1-5.8,11.5-8.2C652.4,107.7,652.8,109.1,652.8,109.1Z" opacity="0.1" style="isolation:isolate"/><path d="M829.2,106.3c-4.1,6.1-9.8,0-9.8,0s-.7-1.1-1.8-2.9l.1-.4c2.6,1.9,10.8.3,12.1,0A5.44,5.44,0,0,1,829.2,106.3Z" opacity="0.1" style="isolation:isolate"/><path d="M776.9,306.1c-12.6,5.8-53.5-4.5-56-5.1a26.29,26.29,0,0,1,5.6-4.9l50.1,2.4A48.79,48.79,0,0,0,776.9,306.1Z" opacity="0.1" style="isolation:isolate"/><path d="M734.3,194.6s-9.8,3.3-23.6-9.4c0,0-31-30.5-33-37.9l-24-42s-10.2,11-14.3,9.4l26.9,46.8s4.9,9,9.4,11.4c0,0,33.4,42.8,33.8,51.3s15,31.5,15,31.5,4.9,37.1-3.7,43.6c0,0,47.7,12.2,57.8,4.1,0,0-4.5-46,0-50.9,0,0,13.8-16.3,4.5-34.2,0,0-2-9.8,3.3-14.7s28.9-41.1,28.9-41.1,5.7-8.1,5.7-13.4c0,0,10.6-35.8,9-45.2,0,0-9.4,2-12.2,0,0,0-13.8,42-15.5,43.6s-13,34.6-28.1,38.3-17.5,5.3-17.5,5.3,29.3,18.3,15.1,26.5S734.3,194.6,734.3,194.6Z" fill="#192080"/><path d="M752.8,178.5a74.53,74.53,0,0,1-.6-11.6l-22.8,6.9a25.42,25.42,0,0,1,1.4,4.7c2.6,1.1,6.1,3.9,9.2,3.9A20.85,20.85,0,0,0,752.8,178.5Z" opacity="0.1" style="isolation:isolate"/><circle cx="739.6" cy="160" r="21.2" fill="#ec8c9c"/><path d="M714.4,127.4c-4.7.4-9.9,3.6-9.6,8.2.1,2.6,1.9,4.7,2.7,7.2,1.8,6-2.3,11.9-5.9,17s-7,11.8-3.9,17.2a33.66,33.66,0,0,0,2.9,3.7c3.8,5.2,3.8,12.1,5.5,18.4a32.16,32.16,0,0,0,37.8,23,20.86,20.86,0,0,1-4.3-13.6c.2-3.6,1.4-7.3,0-10.6-1.8-4.2-7-5.9-9.7-9.6s-2.5-8.8-1.2-13.2,3.5-8.5,4.6-13c.3-1.3.6-2.6,1-3.9,1.9-5.3,7.5-8.4,13-9.8s11.3-1.4,16.7-3.2,10.6-5.9,11.2-11.5c-4.5,1.8-8.7-2.9-13.1-5.1-7.2-3.6-15.4-.2-22.8.6C730.9,130.3,722.9,126.8,714.4,127.4Z" opacity="0.1" style="isolation:isolate"/><path d="M714,126.6c-4.7.4-9.9,3.6-9.6,8.2.1,2.6,1.9,4.7,2.7,7.2,1.8,6-2.3,11.9-5.9,17s-7,11.8-3.9,17.2a33.66,33.66,0,0,0,2.9,3.7c3.8,5.2,3.8,12.1,5.5,18.4a32.16,32.16,0,0,0,37.8,23,20.86,20.86,0,0,1-4.3-13.6c.2-3.6,1.4-7.3,0-10.6-1.8-4.2-7-5.9-9.7-9.6s-2.5-8.8-1.2-13.2,3.5-8.5,4.6-13c.3-1.3.6-2.6,1-3.9,1.9-5.3,7.5-8.4,13-9.8s11.3-1.4,16.7-3.2,10.6-5.9,11.2-11.5c-4.5,1.8-8.7-2.9-13.1-5.1-7.2-3.6-15.4-.2-22.8.6C730.5,129.4,722.5,125.9,714,126.6Z" fill="#493545"/><path d="M760.6,207.1s8.5,7.6,10.2,10.9" opacity="0.1" style="isolation:isolate"/><path d="M778.9,252.3s-10.6,0-15.5,1.2-16.7,0-16.7,0" opacity="0.1" style="isolation:isolate"/><g opacity="0.1"><path d="M771.8,217.4a10.21,10.21,0,0,1-2.9,1.1,11.11,11.11,0,0,0,7.8-1.1c14.3-8.1-15.1-26.5-15.1-26.5h-4.9C756.7,191,786,209.3,771.8,217.4Z"/><path d="M830.1,104.5c0-.3-.1-.5-.1-.7-1.7.3-3.4.6-5.1.8A18.13,18.13,0,0,0,830.1,104.5Z"/><path d="M725.7,299.3c8.5-6.5,3.7-43.6,3.7-43.6s-14.7-22.8-15.1-31.4S680.5,173,680.5,173c-4.5-2.4-9.4-11.4-9.4-11.4s-27.7-45.2-31.8-46.8l26.9,46.8s4.9,9,9.4,11.4c0,0,33.4,42.8,33.8,51.3s15.1,31.4,15.1,31.4,4.9,37.1-3.7,43.6c0,0,29.3,7.5,46.8,6.8C750.1,305.6,725.7,299.3,725.7,299.3Z"/><path d="M734.5,194.9l-.2-.3c-.3.1-.6.1-.8.2A3.4,3.4,0,0,0,734.5,194.9Z"/></g><g opacity="0.1"><path d="M830,103.8l-.3.1c-.4,12.5-9.1,41.9-9.1,41.9,0,5.3-5.7,13.4-5.7,13.4s-23.6,36.3-28.9,41.1-3.3,14.7-3.3,14.7v.1c-.2-3.3.2-8.4,3.6-11.5,5.3-4.9,28.9-41.1,28.9-41.1s5.7-8.1,5.7-13.4C821,149,831.6,113.2,830,103.8Z"/><path d="M778.3,249.2c.6,3.5.2-.2.4,3.3,0,0,10-11.7,7.3-26.2C786.8,239.2,778.3,249.2,778.3,249.2Z"/></g><ellipse cx="469.8" cy="620.4" rx="427.7" ry="41.1" fill="#6c63ff" opacity="0.1" style="isolation:isolate"/><path d="M304,578.8s-14.6-49.5,2.7-85.8a77.41,77.41,0,0,0,6.3-49,129.74,129.74,0,0,0-6.9-23" fill="none" stroke="#535461" stroke-miterlimit="10" stroke-width="2"/><path d="M316.9,397.9c0,6.1-11,23.6-11,23.6s-11-17.6-11-23.6a11,11,0,0,1,22-1.6v1.6Z" fill="#6c63ff"/><path d="M335,431.5c-3.3,5.1-22,13.9-22,13.9s.3-20.7,3.6-25.8a11,11,0,0,1,19.2,10.6,5.67,5.67,0,0,1-.8,1.3Z" fill="#6c63ff"/><path d="M334.2,488.9c-5.4,2.7-26,.8-26,.8S319,472,324.4,469.3a11,11,0,1,1,11.3,18.9c-.5.2-.9.5-1.5.7Z" fill="#6c63ff"/><path d="M323.9,532.1c-4.9,3.6-25.5,5.2-25.5,5.2s7.6-19.3,12.5-22.9a10.93,10.93,0,0,1,15.1,3.7,11.24,11.24,0,0,1-2.1,14Z" fill="#6c63ff"/><path d="M289.9,446.5c4.4,4.2,24.6,8.6,24.6,8.6s-5-20.1-9.3-24.3a11,11,0,1,0-16.4,14.6A5.73,5.73,0,0,0,289.9,446.5Z" fill="#6c63ff"/><path d="M278.4,497.3c5.4,2.7,26,.8,26,.8s-10.7-17.7-16.1-20.4a11,11,0,0,0-9.9,19.6Z" fill="#6c63ff"/><path d="M274,548.2c4.9,3.6,25.5,5.2,25.5,5.2s-7.6-19.3-12.5-22.9A11,11,0,1,0,272.5,547l1.5,1.2Z" fill="#6c63ff"/><path d="M316.9,397.9c0,6.1-11,23.6-11,23.6s-11-17.6-11-23.6a11,11,0,0,1,22-1.6v1.6Z" fill="#192080"/><path d="M335,431.5c-3.3,5.1-22,13.9-22,13.9s.3-20.7,3.6-25.8a11,11,0,0,1,19.2,10.6,5.67,5.67,0,0,1-.8,1.3Z" fill="#192080"/><path d="M334.2,488.9c-5.4,2.7-26,.8-26,.8S319,472,324.4,469.3a11,11,0,1,1,11.3,18.9c-.5.2-.9.5-1.5.7Z" fill="#192080"/><path d="M323.9,532.1c-4.9,3.6-25.5,5.2-25.5,5.2s7.6-19.3,12.5-22.9a10.93,10.93,0,0,1,15.1,3.7,11.24,11.24,0,0,1-2.1,14Z" fill="#192080"/><path d="M289.9,446.5c4.4,4.2,24.6,8.6,24.6,8.6s-5-20.1-9.3-24.3a11,11,0,1,0-16.4,14.6A5.73,5.73,0,0,0,289.9,446.5Z" fill="#192080"/><path d="M278.4,497.3c5.4,2.7,26,.8,26,.8s-10.7-17.7-16.1-20.4a11,11,0,0,0-9.9,19.6Z" fill="#192080"/><path d="M274,548.2c4.9,3.6,25.5,5.2,25.5,5.2s-7.6-19.3-12.5-22.9A11,11,0,1,0,272.5,547l1.5,1.2Z" fill="#192080"/><path d="M598.7,579.5s-14.6-49.5,2.7-85.8a77.41,77.41,0,0,0,6.3-49,129.74,129.74,0,0,0-6.9-23" fill="none" stroke="#535461" stroke-miterlimit="10" stroke-width="2"/><path d="M611.5,398.6c0,6.1-11,23.6-11,23.6s-11-17.6-11-23.6a11,11,0,0,1,11.8-10.2,11.22,11.22,0,0,1,10.2,10.2Z" fill="#6c63ff"/><path d="M629.7,432.2c-3.3,5.1-22,13.9-22,13.9s.3-20.7,3.6-25.8a11,11,0,0,1,19.2,10.6A14.8,14.8,0,0,1,629.7,432.2Z" fill="#6c63ff"/><path d="M628.9,489.6c-5.4,2.7-26,.8-26,.8s10.8-17.7,16.2-20.4a11,11,0,0,1,11.4,18.8A11.94,11.94,0,0,1,628.9,489.6Z" fill="#6c63ff"/><path d="M618.5,532.8c-4.9,3.6-25.5,5.2-25.5,5.2s7.6-19.3,12.5-22.9a10.93,10.93,0,0,1,15.1,3.7,11.24,11.24,0,0,1-2.1,14Z" fill="#6c63ff"/><path d="M584.6,447.3c4.3,4.2,24.6,8.6,24.6,8.6s-5-20.1-9.3-24.3a11,11,0,0,0-16.4,14.6l1.1,1.1Z" fill="#6c63ff"/><path d="M573.1,498c5.4,2.7,26,.8,26,.8s-10.8-17.7-16.2-20.4a11,11,0,0,0-9.8,19.6Z" fill="#6c63ff"/><path d="M568.7,548.9c4.9,3.6,25.5,5.2,25.5,5.2s-7.6-19.3-12.5-22.9a10.93,10.93,0,0,0-15.1,3.7,11.13,11.13,0,0,0,2.1,14Z" fill="#6c63ff"/><path d="M611.1,398.8c0,6.2-11.2,24.1-11.2,24.1s-11.2-17.9-11.2-24.1a11.27,11.27,0,0,1,12-10.4,11.52,11.52,0,0,1,10.4,10.4Z" fill="#192080"/><path d="M629.6,433.1c-3.4,5.2-22.5,14.2-22.5,14.2s.3-21.1,3.7-26.3a11.26,11.26,0,1,1,19.7,10.9A12.49,12.49,0,0,0,629.6,433.1Z" fill="#192080"/><path d="M628.9,489.6c-5.4,2.7-26,.8-26,.8s10.8-17.7,16.2-20.4a11,11,0,0,1,11.4,18.8A11.94,11.94,0,0,1,628.9,489.6Z" fill="#192080"/><path d="M618.5,532.8c-4.9,3.6-25.5,5.2-25.5,5.2s7.6-19.3,12.5-22.9a10.93,10.93,0,0,1,15.1,3.7,11.24,11.24,0,0,1-2.1,14Z" fill="#192080"/><path d="M584.6,447.3c4.3,4.2,24.6,8.6,24.6,8.6s-5-20.1-9.3-24.3a11,11,0,0,0-16.4,14.6l1.1,1.1Z" fill="#192080"/><path d="M573.1,498c5.4,2.7,26,.8,26,.8s-10.8-17.7-16.2-20.4a11,11,0,0,0-9.8,19.6Z" fill="#192080"/><path d="M568.7,548.9c4.9,3.6,25.5,5.2,25.5,5.2s-7.6-19.3-12.5-22.9a10.93,10.93,0,0,0-15.1,3.7,11.13,11.13,0,0,0,2.1,14Z" fill="#192080"/><path d="M669.9,15.3h-6.3a4.4,4.4,0,1,0,.4-8.8H612.7a4.44,4.44,0,0,0-4.2,4.6,4.36,4.36,0,0,0,4.2,4.2H619a4.44,4.44,0,0,0-4.2,4.6,4.36,4.36,0,0,0,4.2,4.2h-8.8a4.4,4.4,0,0,0-.4,8.8h51.3a4.4,4.4,0,1,0,.4-8.8h8.4a4.44,4.44,0,0,0,4.2-4.6A4.36,4.36,0,0,0,669.9,15.3Z" fill="#dee3f3" opacity="0.5" style="isolation:isolate"/><path d="M375.7,41h-4.8a3.35,3.35,0,0,0,.3-6.7H332.1a3.35,3.35,0,0,0,0,6.7h4.8a3.35,3.35,0,0,0-.3,6.7h-6.3a3.35,3.35,0,0,0-.3,6.7h39a3.35,3.35,0,1,0,.3-6.7h6.3a3.42,3.42,0,0,0,3.2-3.5A3.2,3.2,0,0,0,375.7,41Z" fill="#dee3f3" opacity="0.5" style="isolation:isolate"/><path d="M124.3,617.9S98.9,612.8,92.1,606s-37.2-18.6-40.6-10.1S5.8,633.1,34.6,638.2s67.7,6.8,76.1,3.4S124.3,617.9,124.3,617.9Z" fill="#a8a8a8"/><path d="M34.6,635.1c28.8,5.1,67.7,6.8,76.1,3.4,6.4-2.6,10.9-15,12.7-20.7l.9.2s-5.1,20.3-13.5,23.7-47.4,1.7-76.2-3.4c-8.3-1.5-10.7-4.9-9.8-9.3C25.5,631.8,28.4,634,34.6,635.1Z" opacity="0.2" style="isolation:isolate"/><path d="M894.8,522.5s8.4,11-3.9,27.5-22.3,30.5-18.3,40.8c0,0,18.5-30.7,33.5-31.2C921.3,559.3,911.4,541,894.8,522.5Z" fill="#192080"/><path d="M894.8,522.5a15.44,15.44,0,0,1,1.7,3.4c14.7,17.2,22.5,33.3,8.4,33.7-13.1.4-28.9,23.9-32.7,29.8a5,5,0,0,0,.5,1.3s18.5-30.7,33.5-31.2S911.4,541,894.8,522.5Z" fill="#192080"/><path d="M910.4,536.5c0,3.9-.4,7-1,7s-1-3.1-1-7,.5-2,1.1-2S910.4,532.7,910.4,536.5Z" fill="#ffd037"/><path d="M915.8,541.1c-3.4,1.8-6.3,3-6.6,2.5s2.3-2.3,5.7-4.2,2.1-.5,2.3,0S919.1,539.3,915.8,541.1Z" fill="#ffd037"/><path d="M850.6,522.5s-8.4,11,3.9,27.5,22.3,30.5,18.3,40.8c0,0-18.5-30.7-33.5-31.2S834,541,850.6,522.5Z" fill="#192080"/><path d="M850.6,522.5a15.44,15.44,0,0,0-1.7,3.4c-14.7,17.2-22.5,33.3-8.4,33.7,13.1.4,28.9,23.9,32.7,29.8a5,5,0,0,1-.5,1.3s-18.5-30.7-33.5-31.2S834,541,850.6,522.5Z" opacity="0.1" style="isolation:isolate"/><path d="M835,536.5c0,3.9.4,7,1,7s1-3.1,1-7-.5-2-1.1-2S835,532.7,835,536.5Z" fill="#ffd037"/><path d="M829.6,541.1c3.4,1.8,6.3,3,6.6,2.5s-2.3-2.3-5.7-4.2-2-.5-2.3,0S826.3,539.3,829.6,541.1Z" fill="#ffd037"/><path d="M837.7,589.4s23.4-.7,30.5-5.8,36-11,37.8-3,35.2,40.1,8.8,40.3-61.5-4.1-68.5-8.4S837.7,589.4,837.7,589.4Z" fill="#a8a8a8"/><path d="M915.2,618.2c-26.5.2-61.5-4.1-68.5-8.4-5.4-3.3-7.5-15-8.2-20.4h-.8s1.5,18.9,8.5,23.2,42.1,8.6,68.5,8.4c7.6-.1,10.3-2.8,10.1-6.8C923.8,616.7,920.9,618.2,915.2,618.2Z" opacity="0.2" style="isolation:isolate"/><path d="M177.8,74.6h-6.3a4.4,4.4,0,0,0,.4-8.8H120.6a4.44,4.44,0,0,0-4.2,4.6,4.36,4.36,0,0,0,4.2,4.2h6.3a4.44,4.44,0,0,0-4.2,4.6,4.36,4.36,0,0,0,4.2,4.2h-8.8a4.44,4.44,0,0,0-4.2,4.6,4.36,4.36,0,0,0,4.2,4.2H169a4.4,4.4,0,0,0,.4-8.8h8.4a4.4,4.4,0,0,0,0-8.8Z" fill="#dee3f3" opacity="0.5" style="isolation:isolate"/></svg>