<svg data-name="Layer 1" xmlns="http://www.w3.org/2000/svg" xmlns:xlink="http://www.w3.org/1999/xlink" viewBox="0 0 949.87 661.42"><defs><linearGradient id="a" x1="585.64" y1="845.42" x2="585.64" y2="431.55" gradientTransform="translate(-125.1 -301.85)" gradientUnits="userSpaceOnUse"><stop offset="0" stop-color="gray" stop-opacity=".25"/><stop offset=".54" stop-color="gray" stop-opacity=".12"/><stop offset="1" stop-color="gray" stop-opacity=".1"/></linearGradient><linearGradient id="b" x1="266.15" y1="669.72" x2="266.15" y2="669.5" xlink:href="#a"/><linearGradient id="c" x1="252.63" y1="787.79" x2="252.63" y2="453.5" xlink:href="#a"/><linearGradient id="d" x1="852.71" y1="784.58" x2="852.71" y2="377.47" xlink:href="#a"/></defs><circle cx="95.05" cy="65.92" r="46.5" fill="#192080"/><path d="M89.45 160.62c19.5 44.1-5.4 94.9-34.7 133.1-9.8 12.8-20.6 26.3-22 42.3-1.6 19.7 11.7 37.8 27.5 49.6 28.8 21.5 68.2 28.2 102.5 17.3 29.6-9.4 54.6-30.6 84.5-39.1 50-14.3 103 9.4 145.8 39 30.3 20.9 62.8 46.4 99.3 41.9 25.7-3.2 47.5-21.2 62.3-42.5 7.2-10.3 13.4-21.8 23.8-28.7 6.2-4.1 13.5-6.3 20.7-7.9 66.4-14.2 136.8 20.4 202.4 2.6 44.3-12 79.5-47 101.5-87.3s32.2-85.7 40.7-130.8c6.1-32 11.1-66.6-2.8-96-14.9-31-49-49.9-83.3-53.4s-68.7 6.2-100.3 20c-39.4 17.2-78.1 41.4-121.2 41.5-29.3.1-57.3-11.2-85.4-19.8-46.9-14.4-95.6-21.5-144.2-28.1-46.6-6.3-93.6-12.2-140.4-8.4-33.1 2.6-62.4 15.3-94.5 21.1-21 3.8-42 1-62.6 7.4-25.3 7.9-51.4 26.3-52.8 55.2-1.2 27.5 22.8 47.6 33.2 71z" fill="#6c63ff" opacity=".1" style="isolation:isolate"/><path d="M601.9 199.9c-4.3-11.1-15.3-37.3-22.5-32.1-9.2 6.6 9.2 35.5 9.2 35.5.5 5.3-9.8 16.4-15.3 21.9v-.7c-.1.2-.1.4-.2.6l-.5-.3a2.52 2.52 0 01-.7 1.2v-1.2c-1.1 4.5-19.6 10.2-19.6 10.2h-1.4c-5.1 0-18.5-1.2-24.7-11.1a52.93 52.93 0 00-12.1-14.1 10.39 10.39 0 00-5.8-2.2c-17.1-1.1-31-9.8-33.8-11.6l-.5-.4-.1.3a29 29 0 01-1.9-2.9l-.3-.5a24.87 24.87 0 0013.8-22.3v-.5a17.31 17.31 0 002.3-8.6v-3l3.9-3.5a15.84 15.84 0 004.5-5.5 6.63 6.63 0 00.5-2.8 4.69 4.69 0 00-1.8-4.3c-3-2.1-8 0-10.2-2.9-1-1.3-.8-3.1-1.3-4.6-1-3.1-4.6-4.8-7.9-4.8s-6.5 1.2-9.7 2.1a55.54 55.54 0 01-20.7 1.9 13.71 13.71 0 00-5.7.2 7.67 7.67 0 00-4.6 5.3 12.59 12.59 0 00-.4 2.7 17 17 0 00-4.3 11.4v7.7a17.1 17.1 0 004.2 11.2 24.8 24.8 0 0010.5 18.2v.6l.1.1a43.6 43.6 0 01-1.1 7.1v-.5s-14 7.5-29 7.6h-1.7a11.25 11.25 0 00-8 3c-4.4 4.2-12.2 10.8-17 10.8-1 0-26.2 4.9-30.4 5.8l-7.8-7.6-.2.5-.5-.5a18.66 18.66 0 00-2.5.4c-4-4.7-12-15.8-13.9-30.5 0 0 17.3-19.7 10.9-38-5.4-15.6-20.4 17.9-24.6 28a8.66 8.66 0 00-.3 5.5l14 45.2a21.68 21.68 0 00-1.1 11h-.2l10.2 13.1s7.7 3.3 19.7 3.2a70.29 70.29 0 0025.7-4.9h2.4l-.5.2h12.2l7.7 23.4c-.3 2.1-4 31.9-7 38.5a16.68 16.68 0 00-1.2 7 56 56 0 002.2 13.5l6.8-.3-.3.5c-5.7 11.8-15.3 32.7-21 52.3l-9.9 20 7.4 89.7h.3l.6.1c.8.1 2 .3 3.6.5l-.6 1-16.3 27s-11.6 23.8 14.1 19.3c0 0 9.5-2.8 13.4-19l16.9-15.9s.8-10.5-4-14.8c-.3-4.9-1.1-19.1.1-22.5 1.4-4.1-6-51.8-6-51.8s26.8-55.5 43-56.9a8.28 8.28 0 013.5.5c13.3 4.3 29.5 36.6 34.2 46.6l.2.5v.1l.2.4v.1l.2.3v.1l.1.3v.1l.1.3v.1l.1.2v.1l.1.1V412.2l2.1 62.5.2.1h.1l-.2 1.3-.9 6.5s11.6 24.5 10.9 27.6 7.8 15.5 19.7 12.1 4.9-22.9 4.9-22.9L515 475.6l-.5-1.1a24.28 24.28 0 003.2-2.4s-3.5-25.5 0-31 4.6-30.7 4.6-30.7-2.5-17.3-6.7-24.8l-17.7-63.3c5.3 4.9 9.4 6.9 12.9 6.7h.6a8.12 8.12 0 004.3-1.1 14.29 14.29 0 002-1.4l.3-.3c4.9-4.1-5.6-20.4-11.6-30-5.8-9.3 2.2-34.6 2.8-36.5a9.5 9.5 0 011.7-1 13 13 0 013.9-.9c5.7.2 12.8 3.5 21.5 5.2a103 103 0 0018.4 1.4h.4c2.5 0 4.7 0 6.5-.1a11.43 11.43 0 004.7-1.3 12.22 12.22 0 003.3-2.7l15.3-17.3-.4.2a9.12 9.12 0 000-6.1l16.2-28a9.26 9.26 0 001.2-9.2z" transform="translate(-.05 -.08)" fill="url(#a)"/><path d="M419.75 505.82l-16.3 15.7c-3.7 16-12.9 18.7-12.9 18.7-24.8 4.4-13.6-19-13.6-19l15.8-26.7 1.9-3.3s11.2-3.4 18.7-1.4a6.21 6.21 0 012.5 1.4c4.7 4.1 3.9 14.6 3.9 14.6zM520.45 519.82c-11.6 3.4-19.7-8.8-19-11.9s-10.6-27.2-10.6-27.2l.9-6.4.8-5.9 19 1.4 1.8 3.8 11.1 23.5c0-.1 7.5 19.3-4 22.7z" fill="#444176"/><path d="M415.95 493.92c-1.8 3.1-16.3 1.5-23.4.6l1.9-3.3s11.2-3.4 18.7-1.4a6.21 6.21 0 012.5 1.4 17.27 17.27 0 01.3 2.7zM513.35 473.52c-9.7 6.5-20.1 1.6-21.7.8l.8-5.9 19 1.4z" opacity=".1" style="isolation:isolate"/><path d="M516.05 439.52c-3.4 5.4 0 30.6 0 30.6-11.2 10.2-24.5 2.7-24.5 2.7l-2-61.6s-22.1-50.7-37.8-49.3-41.5 56.1-41.5 56.1 7.1 46.9 5.8 51 0 23.8 0 23.8c-2.4 4.1-27.2 0-27.2 0l-7.1-88.5 9.5-19.7c5.5-19.3 14.7-40 20.3-51.6 2.8-5.8 4.6-9.3 4.6-9.3l18.1-3.8 58.8-12.2 21.1 76.8c4.1 7.5 6.5 24.5 6.5 24.5s-1.2 25-4.6 30.5z" fill="#565387"/><g opacity=".1"><path d="M496.95 472.82l-2-61.6s-22.1-50.7-37.8-49.3a6.53 6.53 0 00-2 .5c15.3 5.1 34.4 48.9 34.4 48.9l2 61.6a24.39 24.39 0 0013.5 2.5 28.43 28.43 0 01-8.1-2.6z"/><path d="M394.25 492.92l-7.1-88.5 9.5-19.8c5.5-19.3 14.7-40 20.3-51.6 2.8-5.8 4.6-9.3 4.6-9.3l18.1-3.8 53.6-11.1-.3-1.1-58.8 12.2-18.1 3.8s-1.8 3.5-4.6 9.3c-5.6 11.6-14.8 32.3-20.3 51.6l-9.5 19.7 7.1 88.5s13.6 2.2 21.6 1.7a143.88 143.88 0 01-16.1-1.6z"/></g><path d="M352.85 218.92s-19.4 1-16.7 21.4l5.4.7 8.2-8.8 4.1-7.5v-1.7z" fill="#ced2df"/><path d="M352.85 218.92s-19.4 1-16.7 21.4l5.4.7 8.2-8.8 4.1-7.5v-1.7z" opacity=".1" style="isolation:isolate"/><path d="M568.55 226.32s16 8.5 11.9 18.4l-5.1 2-6.8-3.7-1-8.8.7-6.1z" fill="#ced2df"/><path d="M568.55 226.32s16 8.5 11.9 18.4l-5.1 2-6.8-3.7-1-8.8.7-6.1z" opacity=".1" style="isolation:isolate"/><path d="M452.25 138.62h13.6a21.1 21.1 0 0121.1 21.1 21.1 21.1 0 01-21.1 21.1h-13.6a21.1 21.1 0 01-21.1-21.1 21 21 0 0121.1-21.1z" fill="#88455e"/><path d="M352.75 221.82l-11.9 19-1-3.4-16.2-52.7a7.5 7.5 0 01.3-5.5c4.1-9.9 18.5-43 23.7-27.5 6.1 18-10.5 37.4-10.5 37.4 1.9 15.8 10.8 27.2 14.2 31.1.8 1 1.4 1.6 1.4 1.6zM566.05 229.92s18.7-17.7 18-24.8c0 0-17.7-28.6-8.8-35 7-5.1 17.6 20.7 21.8 31.6a10.88 10.88 0 01-.7 9l-22.4 39.6zM444.85 180.62s3.4 21.8-6.5 29.9 28.2 8.1 28.2 8.1l13.6-12.6s-15.7-14.6-10.9-25.5z" fill="#ec8c9c"/><path d="M444.25 205.42s14.6 10.9 29.3-1.4l23.8 49.3-1.4 60.2s-49.3 25.5-69.7 9.9-3.4-23.8-3.4-23.8l-4.8-46.3 5.1-29.9s9.2-14.3 9.9-14.3 11.2-3.7 11.2-3.7z" opacity=".1" style="isolation:isolate"/><path d="M444.25 204.72s14.6 10.9 29.3-1.4l23.8 49.3-1.4 60.3s-49.3 25.5-69.7 9.9-3.4-23.8-3.4-23.8l-4.8-46.3 5.1-29.9s9.2-14.3 9.9-14.3 11.2-3.8 11.2-3.8z" fill="#ebf1f6"/><path d="M444.25 199.72s-13.9 7.9-28.9 7.5a10.88 10.88 0 00-7.7 2.9c-4.3 4.1-11.8 10.6-16.5 10.6-1 0-29.9 5.8-29.9 5.8l-7.6-7.6s-11.4 22.3-16.8 21.3l9.9 12.9s18.7 8.2 43.2-1.7h14.3l7.5 23.1s-3.7 31.3-6.8 38.1 1 20.1 1 20.1l26.9-1s1.4-13.3 3.4-15-7.1-60.2-7.1-60.2-6.1-33 16.3-44.9z" opacity=".1" style="isolation:isolate"/><path d="M434.05 320.02a83.14 83.14 0 00-2.1 12.3l-20.6.8c2.8-5.8 4.6-9.3 4.6-9.3zM352.75 221.82l-11.9 19-1-3.4c4.4-4.3 9.5-13.4 11.5-17.2.8 1 1.4 1.6 1.4 1.6z" opacity=".1" style="isolation:isolate"/><path d="M444.25 199.72s-14.6 7.9-29.6 7.5a10.88 10.88 0 00-7.7 2.9c-4.3 4.1-11.8 10.6-16.5 10.6-1 0-29.9 5.8-29.9 5.8l-7.7-7.7s-11.4 22.3-16.8 21.3l9.9 12.9s18.7 8.2 43.2-1.7h14.3l7.5 23.1s-3.7 31.3-6.8 38.1 1 20.1 1 20.1l26.9-1s1.4-13.3 3.4-15-7.1-60.2-7.1-60.2-6.1-33 16.3-44.9z" fill="#ced2df"/><path d="M473.45 197.62s13.9 10.6 32.4 11.8a9.81 9.81 0 015.5 2.1 54.22 54.22 0 0111.7 14c7.5 12.3 25.8 10.9 25.8 10.9s17.9-5.6 18.9-10c0 0 .5 24 11.7 18.2l-14.8 17a10.35 10.35 0 01-7.5 3.6c-5.5.2-15.2.3-23.3-1.3-12.3-2.4-21.1-8.2-27.6-3.1 0 0-8.5 26.5-2.7 36.1s16 25.5 11.2 29.6-10.6 3.7-20.1-6.1-10.2-26.5-10.2-26.5l2.4-42.9s-9.2-32.3-18-38.8z" opacity=".1" style="isolation:isolate"/><path d="M580.95 244.22l-14.8 17.1a12.16 12.16 0 01-3.6 2.7 10.13 10.13 0 01-3.9.9c-5.5.2-15.2.3-23.3-1.3-11.5-2.2-19.9-7.4-26.3-3.9a5.08 5.08 0 00-1.3.9s-8.5 26.5-2.7 36.1 16 25.5 11.2 29.6a9.48 9.48 0 01-2.7 1.7c-4.3 1.9-9.6.3-17.4-7.9-9.5-9.9-10.5-26.5-10.5-26.5l2.4-42.9s-9.2-32.3-18-38.8l3.9-14c2.7 1.8 16.1 10.4 32.6 11.5a10.41 10.41 0 015.6 2.1 54.22 54.22 0 0111.7 14c7.5 12.3 25.8 10.9 25.8 10.9a101.68 101.68 0 0012.9-5.1c2.6-1.3 4.9-2.7 6-4a4.73 4.73 0 00.7-1.2s.5 23.9 11.7 18.1z" opacity=".1" style="isolation:isolate"/><path d="M580.25 244.62l-14.8 17.1a10.91 10.91 0 01-2.9 2.3 10.57 10.57 0 01-4.5 1.3c-5.5.2-15.2.3-23.3-1.3-11-2.1-19.3-7.1-25.6-4.3a8.17 8.17 0 00-2 1.2s-8.5 26.5-2.7 36.1 16 25.5 11.2 29.6a14.29 14.29 0 01-2 1.4c-4.4 2.4-9.8 1-18.1-7.5-9.5-9.9-10.5-26.5-10.5-26.5l2.4-42.9s-9.2-32.3-18-38.8l4.1-14.6.5.3c2.7 1.8 16.1 10.4 32.6 11.5a10.41 10.41 0 015.6 2.1 54.22 54.22 0 0111.7 14c7.5 12.3 25.8 10.9 25.8 10.9a101.68 101.68 0 0012.9-5.1c3.1-1.6 5.6-3.3 6-4.9v.9c.2 4 1.7 22.3 11.6 17.2z" fill="#ced2df"/><path d="M469.65 181.12h-25a68.88 68.88 0 01.5 12 25.61 25.61 0 0026.4 1.9c-2.4-4.4-3.8-9.5-1.9-13.9z" opacity=".1" style="isolation:isolate"/><circle cx="459.85" cy="172.42" r="24.8" fill="#ec8c9c"/><path d="M454.75 168.02c2.8-.3 5.5-1.3 8.3-.8 2.5.5 4.6 2.2 7.1 2.7 4.8 1 9.2-2.5 12.8-5.8l7.8-7.1c1.7-1.6 3.5-3.2 4.4-5.4s.6-5-1.3-6.4c-2.8-2-7.8 0-9.8-2.8-.9-1.3-.8-3-1.3-4.5-1-3.1-4.4-4.7-7.7-4.8s-6.3 1.1-9.4 2a54.12 54.12 0 01-20 1.9 12.78 12.78 0 00-5.5.2 7.59 7.59 0 00-4.4 5.3c-1.5 5.4 1.1 14.2 3.7 19.1s10 7.1 15.3 6.4z" opacity=".1" style="isolation:isolate"/><path d="M454.75 167.32c2.8-.3 5.5-1.3 8.3-.8 2.5.5 4.6 2.2 7.1 2.7 4.8 1 9.2-2.5 12.8-5.8l7.8-7.1c1.7-1.6 3.5-3.2 4.4-5.4s.6-5-1.3-6.4c-2.8-2-7.8 0-9.8-2.8-.9-1.3-.8-3-1.3-4.5-1-3.1-4.4-4.7-7.7-4.8s-6.3 1.1-9.4 2a54.12 54.12 0 01-20 1.9 12.78 12.78 0 00-5.5.2 7.59 7.59 0 00-4.4 5.3c-1.5 5.4 1.1 14.2 3.7 19.1s10 7 15.3 6.4z" fill="#88455e"/><path d="M411.35 274.72s5.4.7 8.2 4.1a14.88 14.88 0 007.5 4.4M362.45 229.72s4.4 9.9 1.7 10.9-1.7 8.2-1.7 8.2" opacity=".1" style="isolation:isolate"/><g opacity=".1"><path d="M363.95 226.32s28.9-5.8 29.9-5.8c4.7 0 12.2-6.5 16.5-10.6a11.41 11.41 0 014.7-2.6h-.4a10.88 10.88 0 00-7.7 2.9c-4.3 4.1-11.8 10.6-16.5 10.6-.8 0-19.3 3.7-26.8 5.2zM444.25 201.12v-1.3a74.84 74.84 0 01-22.2 7.1 68.09 68.09 0 0022.2-5.8zM408.55 332.52s-4.1-13.3-1-20.1 6.8-38.1 6.8-38.1l-7.5-23.1h-14.3l-.9.3h11.8l7.5 23.1s-3.7 31.3-6.8 38.1 1 20.1 1 20.1l26.9-1v-.2z"/></g><g opacity=".1"><path d="M516.05 321.12a14.29 14.29 0 01-2 1.4c-4.4 2.4-9.8 1-18.1-7.5-7.6-7.8-9.8-20-10.3-24.6l-.2 3.5s1 16.7 10.5 26.5c8.3 8.5 13.7 9.9 18.1 7.5a14.29 14.29 0 002-1.4c1.4-1.2 1.5-3.5.8-6.4a8.74 8.74 0 01-.8 1zM575.45 245.12l-9.6 11.1a10.91 10.91 0 01-2.9 2.3 10.57 10.57 0 01-4.5 1.3c-5.5.2-15.2.3-23.3-1.3-11-2.1-19.3-7.1-25.6-4.3a8.17 8.17 0 00-2 1.2s-5.5 17.1-4.7 28.8c.7-10.9 4.7-23.4 4.7-23.4a8.17 8.17 0 012-1.2c6.3-2.8 14.5 2.1 25.6 4.3 8.1 1.6 17.8 1.5 23.3 1.3a10.18 10.18 0 004.5-1.3 10.91 10.91 0 002.9-2.3l14.8-17.1a6 6 0 01-5.2.6z"/></g><path d="M140.6 367.7a.74.74 0 00.9.1c-.3 0-.6-.1-.9-.1z" transform="translate(-.05 -.08)" fill="url(#b)"/><path d="M242.5 202c-1.8-.5-4.4-1.4-7.5-2.5a38.58 38.58 0 006.9-13.9l-.3.1.3-.9c-5.9 2.4-12.5-1.7-16.7-6.9s-7-11.7-11.6-16.6a60.93 60.93 0 00-6.1-5.3c-1.4-1-2.8-2.1-4.5-2.2-2.7-.1-4.8 2.5-7.3 3.3a9.78 9.78 0 01-5.1-.2c-6.6-1.5-13-4.3-19.8-5.1a24.27 24.27 0 00-10.7 1.2c-3.4 1.3-5 3.9-7.7 5.9-3 2.2-8.9 2.2-12.4 2.5a77.89 77.89 0 01-12.8.5 29.79 29.79 0 00-7.3.3c-5.1 1.1-9.1 5.1-12.9 9a6.36 6.36 0 00-2.1 3.4v1.1a7.89 7.89 0 00.5 3 39.1 39.1 0 004.9 9.8c1.6 2.2 3.4 4.3 4.2 6.9a13.36 13.36 0 01.6 4 31.25 31.25 0 01-.4 4.3 58 58 0 01-3.3 11.5 21 21 0 00-1.9 6v1.3c-.3 6.6 6.4 11.4 7.7 17.9a8.75 8.75 0 01.2 1.6c-.1 4.1-2.5 8.1-5.9 9.7l.9.3a4.05 4.05 0 01-.9.5 13.89 13.89 0 001.9.6 44.91 44.91 0 00-9.7 12C92.3 286.8 13.9 329 13.9 329l1.2.7-.9.6c-6.8 4.5-22.7 17.7-8.3 34.3 0 0 11.2-17.7 19.1-25.3a9 9 0 001-.9 2.27 2.27 0 01.3 1.8l51.5-29s18.3-12.8 23.4-15.7a44.25 44.25 0 0111.6-5l-.6.3a23.31 23.31 0 015.9-.8c9.1.1 19 6.8 22.2 33.3 4.4 35.4 2.3 41.8.9 42.7a.9.9 0 01-.5-.1l.1.1a1.27 1.27 0 01-.6-.1.78.78 0 00.8.2.66.66 0 00.6-.1h.7a3.4 3.4 0 01-.1 1c-.1 0-.4.2 0 .2-.1 2-.1 4.2 0 6.4-4.5.3-9.1.5-13 .8l.4-1.9.2-.8c3.5-.3 6.8-1.3 7.2-4.1.9-6.2-7.7-9.5-14.9-9.9s-50.7 2.5-50.7 2.5-6.5 8.4 14.1 11c.6.3 1.3.7 1.9 1 8.1 4.6 19.1 13.1 24.3 17.3l.7.6-2.4 1.9c12.8 2.9 25.1 51.7 31.9 74s21.7 21.5 34.1 18.2c11.6-3.1 13-36.7 13.2-40.9v-.4l20.6 25.4 1.6 1.9 1.8.9c15.6 7.4 32.8-6.8 27.9-23s-12.6-40.5-17.8-50.7c-4.3-8.5-9.8-22.8-13.2-31.6.4-.2.9-.4 1.3-.6 0 0-.1-.4-.2-1.1l.2-.1s-5-25.7-5.2-44v-1.6a60.26 60.26 0 016.1-1.2l.1-.8-.4.1 2.1-23.7s7.6-16.2 1.8-22.9a13.55 13.55 0 01-3.4-7c-1-6.2 0-16.5 13.5-25.1 20.9-13.2 29-24 29-24s.3-8-12.5-11.8zm-41.4 16.4v-10.9c3.9-.2 7.8.3 11.7 0a26.3 26.3 0 005.6-1l.9.6a92.24 92.24 0 01-18.2 11.3zM142 390.1c1.5 1.1 3.1 2.2 4.6 3.3.9 5.4 1.8 9.2 1.8 9.5a72.86 72.86 0 00-6.4-12.8z" transform="translate(-.05 -.08)" fill="url(#c)"/><path d="M174.95 381.02l-.9 4.9-.7 3.7-1.3 6.8-12.2 8.5s-1.1-.9-2.9-2.4c-5-4.1-15.5-12.5-23.3-17a25 25 0 00-6.4-3z" fill="#ffbdc6"/><path d="M174.95 381.02l-.9 4.9a44 44 0 01-8.1-.4l-28.5.4c-1.4-.1-2.6-.2-3.8-.3a25 25 0 00-6.4-3z" opacity=".1" style="isolation:isolate"/><path d="M166.05 384.72s14.3 2.4 15.1-3.7-7.3-9.3-14.2-9.8-48.5 2.5-48.5 2.5-7.3 9.8 19.1 11.4z" fill="#7679b4"/><path d="M174.95 381.02l-.9 4.9-.7 3.7-1.3 6.8-12.2 8.5s-1.1-.9-2.9-2.4c-5-4.1-15.5-12.5-23.3-17a25 25 0 00-6.4-3z" opacity=".1" style="isolation:isolate"/><path d="M174.95 381.02l-.9 4.9a44 44 0 01-8.1-.4l-28.5.4c-1.4-.1-2.6-.2-3.8-.3a25 25 0 00-6.4-3z" opacity=".1" style="isolation:isolate"/><path d="M166.05 384.72s14.3 2.4 15.1-3.7-7.3-9.3-14.2-9.8-48.5 2.5-48.5 2.5-7.3 9.8 19.1 11.4z" opacity=".1" style="isolation:isolate"/><path fill="#a66477" d="M122.65 183.82h74.5v88.4h-74.5z"/><path opacity=".1" style="isolation:isolate" d="M122.65 183.82h74.5v88.4h-74.5z"/><path d="M35.25 335.22a11.78 11.78 0 00-4.5 3.2c-7.5 7.4-18.3 24.9-18.3 24.9-13.8-16.4 1.5-29.3 8-33.8 1.6-1.1 2.6-1.7 2.6-1.7zM174.15 211.72s3.7 25.7 16.3 31.8-16.3 17.5-16.3 17.5l-39.5-14.7s22.4-7.3 17.9-28.9zM131.85 366.12l-.9 4.9-.7 3.7-1.3 6.8-12.2 8.5s-1.1-.9-2.9-2.4c-5-4.1-15.5-12.5-23.3-17a25 25 0 00-6.4-3z" fill="#ffbdc6"/><path d="M131.85 366.12l-.9 4.9a44 44 0 01-8.1-.4l-28.5.4c-1.4-.1-2.6-.2-3.8-.3a25 25 0 00-6.4-3z" opacity=".1" style="isolation:isolate"/><path d="M122.85 369.82s14.3 2.4 15.1-3.7-7.3-9.4-14.3-9.8-48.5 2.4-48.5 2.4-7.3 9.8 19.1 11.4z" fill="#7679b4"/><path d="M130.25 374.82l-1.3 6.8-12.2 8.5s-1.1-.9-2.9-2.4l16.2-13.3z" opacity=".1" style="isolation:isolate"/><path d="M210.85 468.02c-.6-.3-1.1-.6-1.7-.9l-1.5-1.9-19.7-25v.4c-.1 4.2-1.5 37.3-12.6 40.3-11.8 3.3-26.1 4.1-32.6-17.9s-18.3-70-30.5-72.9l18.1-14.9s12 14 16.9 27.5c-.2-.9-8.5-39.6-1.6-46.4h59.5s9.2 26.1 15.5 39.1c4.9 10.1 12.3 33.8 17 49.9s-11.8 30-26.8 22.7z" fill="#192080"/><path d="M209.15 363.72c-9.2 5.4-49.5 3.2-62.6 2.3l-3.6-.3c-.4 0 .1-.2.1-.2l.4-3.7 9.8-24.8 52.3-30.3c-1.1 3.2-1.4 8.1-1.3 13.7.2 17.9 4.9 43.3 4.9 43.3z" opacity=".1" style="isolation:isolate"/><path d="M209.15 362.52c-9.2 5.4-49.5 3.2-62.6 2.3l-3.6-.3h-.6l.6-.2 3.2-.9 6.9-27.7 52.3-30.3c-1.1 3.2-1.4 8.1-1.3 13.7.4 18 5.1 43.4 5.1 43.4z" fill="#f2f1f2"/><path d="M204.25 319.12c-10.6 2.5-34.1 9.7-43.1 27-6 11.6-11 16.5-14.6 18.6l-3.6-.3.1-.2 3.2-.9 6.9-27.7 52.3-30.3c-1 3.4-1.3 8.2-1.2 13.8zM23.05 327.82l12.2 7.3a11.78 11.78 0 00-4.5 3.2c-1-3-7.4-7.1-10.3-8.9 1.5-1 2.6-1.6 2.6-1.6zM140.85 365.02a.76.76 0 01-.9-.1 2.77 2.77 0 00.9.1z" opacity=".1" style="isolation:isolate"/><path d="M168.45 241.92s-11 1.2-18.7-6.9c0 0-32.6 9.4-43.6 30.6s-85.9 62.7-85.9 62.7 13 7.3 11.8 11l49.3-28.5s17.5-12.6 22.4-15.5 31.8-20.4 37.5 27.3 0 42 0 42 8.1 2.9 20-20 48.5-28.1 48.5-28.1l2-24s7.3-15.9 1.7-22.6a14.79 14.79 0 01-3.3-6.9c-.9-6.1 0-16.3 13-24.7 20-13 27.7-23.6 27.7-23.6s.4-7.7-11.8-11.4-61.9-23.6-61.9-23.6l-1.6 6.9 39.1 27.7s-19.5 15.9-35 15.5c-.2-.1 2.7 11.7-11.2 12.1z" fill="#192080"/><path d="M176.05 222.92a85.21 85.21 0 01-2.3-10l-21.6 5.7a24.14 24.14 0 01-.5 12.5 23.3 23.3 0 0024.4-8.2z" opacity=".1" style="isolation:isolate"/><circle cx="158.05" cy="207.52" r="23.2" fill="#ffbdc6"/><path d="M170.45 154.72c6.4.7 12.6 3.5 18.9 5a9.08 9.08 0 004.9.2c2.5-.8 4.5-3.3 7-3.3 1.6 0 3 1.1 4.3 2.1a57.77 57.77 0 015.9 5.2c4.4 4.8 7.1 11.1 11.1 16.3s10.3 9.2 16 6.8c-3.9 15-16.5 26.5-30.1 27.4-5.5.4-11-.8-16.3.8a14.48 14.48 0 01-4.1 1c-3 0-5.5-2.8-7.4-5.5-4.4-6.4-8-13.6-13-19.4-1.6-1.9-3.6-3.8-5.9-4.1s-4.5.8-6.6 1.8c-3.4 1.8-6.9 3.6-9.6 6.7s-4.3 7.6-3.2 11.7c.6 2.2 2 4.2 2 6.5 0 3.7-3.2 6.4-3.9 10-.1 1.5-.2 3-.2 4.6-.3 4.9-3.5 9-6.9 12.1-1.3 1.2-2.8 2.5-3.1 4.4-.3 1.3 0 2.6-.2 3.9-.5 3.2-3.7 4.8-6.5 5.3a18.28 18.28 0 01-9.8-1.2c4-1.9 6.4-7.2 5.5-12-1.3-6.6-7.9-11.4-7.3-18.1a20.81 20.81 0 011.8-6 54 54 0 003.1-11.3 18.27 18.27 0 00-.2-9c-.9-2.6-2.6-4.6-4.1-6.8a38.88 38.88 0 01-4.7-9.6 5.82 5.82 0 01-.4-3.2 6.31 6.31 0 012-3.3c3.6-3.8 7.5-7.8 12.4-8.9a27.41 27.41 0 017-.3 82.45 82.45 0 0012.2-.5c3.3-.4 9-.3 11.8-2.5 2.6-2 4.1-4.5 7.4-5.8a21.76 21.76 0 0110.2-1zM183.35 394.42s13.4 26.5 9.4 34.6M207.75 465.22l-19.7-25v.4s-1.1-8.1 2.6-5.4c8.2 5.9 21.4 15.7 21.6 17.4s-2.7 8.5-4.5 12.6z" opacity=".1" style="isolation:isolate"/><g opacity=".1"><path d="M179.85 229.72s1.7 6.9-3.7 10.3c8.3-1.4 8.6-7.9 8.4-10.6a37.08 37.08 0 01-4.7.3zM25.15 326.62s74.9-41.5 85.9-62.7c7.9-15.2 26.9-24.3 37-28.3-7.4 2.5-32.2 11.9-41.5 29.9-11 21.2-85.9 62.7-85.9 62.7zM194.45 226.42c12.8-4 24.9-13.9 24.9-13.9l-39.1-27.6.9-3.8-3.7-1.5-1.6 6.9 39.1 27.7a96.55 96.55 0 01-20.5 12.2zM194.65 320.32a100.93 100.93 0 0115.3-3.9l.1-.8a105.09 105.09 0 00-15.4 4.7zM147.25 363.02h-.3a.76.76 0 01-.9-.1 2.77 2.77 0 00.9.1c1.3-.8 3.4-6.9-.9-42.1-4.5-37.6-22.2-34.6-31.8-30.3 9.9-2.7 23.5-.4 27.3 31.9 4.2 35.2 2.2 41.3.9 42.1a9.17 9.17 0 004.8-1.6zM142.45 364.62a2.77 2.77 0 01-.9-.1.76.76 0 00.9.1z"/></g><path d="M170.45 153.92c6.4.7 12.6 3.5 18.9 5a9.08 9.08 0 004.9.2c2.5-.8 4.5-3.3 7-3.3 1.6 0 3 1.1 4.3 2.1a57.77 57.77 0 015.9 5.2c4.4 4.8 7.1 11.1 11.1 16.3s10.3 9.2 16 6.8c-3.9 15-16.5 26.5-30.1 27.4-5.5.4-11-.8-16.3.8a14.48 14.48 0 01-4.1 1c-3 0-5.5-2.8-7.4-5.5-4.4-6.4-8-13.6-13-19.4-1.6-1.9-3.6-3.8-5.9-4.1s-4.5.8-6.6 1.8c-3.4 1.8-6.9 3.6-9.6 6.7s-4.3 7.6-3.2 11.7c.6 2.2 2 4.2 2 6.5 0 3.7-3.2 6.4-3.9 10-.1 1.5-.2 3-.2 4.6-.3 4.9-3.5 9-6.9 12.1-1.3 1.2-2.8 2.5-3.1 4.4-.3 1.3 0 2.6-.2 3.9-.5 3.2-3.7 4.8-6.5 5.3a18.28 18.28 0 01-9.8-1.2c4-1.9 6.4-7.2 5.5-12-1.3-6.6-7.9-11.4-7.3-18.1a20.81 20.81 0 011.8-6 54 54 0 003.1-11.3 18.27 18.27 0 00-.2-9c-.9-2.6-2.6-4.6-4.1-6.8a38.88 38.88 0 01-4.7-9.6 5.82 5.82 0 01-.4-3.2 6.31 6.31 0 012-3.3c3.6-3.8 7.5-7.8 12.4-8.9a27.41 27.41 0 017-.3 82.45 82.45 0 0012.2-.5c3.3-.4 9-.3 11.8-2.5 2.6-2 4.1-4.5 7.4-5.8a21.76 21.76 0 0110.2-1z" fill="#a66477"/><path d="M833.5 101.8v-.4a.6.6 0 00-.1-.4h-.2v-.8c-.4-9.3-13.2-29-18.4-23.2-4.5 5.1 2.3 17.9 5.8 23.6l.3.5-.2-.1s-14.3 42.7-16 44.3-13.5 35.2-29 39c-3.1.7-5.6 1.4-7.8 2l.2-.6a63.86 63.86 0 002.7-10c.5-3.6 0-8-1.8-9.8-.9-.9-2-1-2.7-2.4a12.3 12.3 0 01-.8-3.9l-1.3-16.2.9-.3c5.6-1.8 11-6 11.6-11.7-.2.1-.4.1-.6.2.1-.3.1-.7.2-1-4.7 1.8-9-3-13.5-5.2-7.4-3.6-15.9-.2-23.5.6-8.7.9-16.9-2.6-25.8-2-4.8.4-10.2 3.6-9.9 8.4.2 2.6 2 4.8 2.8 7.3 1.9 6-2.3 12.1-6.1 17.3-2.5 3.4-4.8 7.5-5.2 11.5-8.6-9-17.9-19.4-19-23.3l-24.9-42.7s-.6.6-1.5 1.6c-.2-.5-.3-1-.5-1.5-3.2-8.9-12.2-30.5-23.6-26.5s4.7 26.1 11.8 34.9l1 1.2a3.67 3.67 0 01-1.8-.1l27.8 47.7s5 9.1 9.7 11.6c0 0 34.5 43.5 34.9 52.2s15.5 31.9 15.5 31.9 5 37.7-3.8 44.3h1.4c-.4.4-.8.9-1.3 1.4-6.5 7.3-14.9 22.8-3.5 49.3 16.8 39 19.4 54.3 19.4 54.3s-32 1.7-38.3 2.9c-5.6 1.1-27.3 1.9-32.2 2-1.8-2.1-7-6.6-14.1 0-8.8 8.3-15.2 36-15.2 36s-3.4 22.4 8 16.6c0 0 13.5-18.7 17.3-19.5 1.9-.4 3.9-3.2 5.4-5.8h.1c.1 0 .5-.2 1.1-.4 2.8-1.1 10.5-3.8 16.6-2.5 3.3.7 17.6.9 32.6.9-3.4 8.1-9.4 29-9.4 29s-2.5 19.5 5.9 18.7c6-.6 15.2-15.9 20-24.7 3.5-2.5 13.5-11.7 20.8-11l49.7-19.1s11.8-6.6 5.5-28.6c-5-17.5-19.2-53.2-24.8-67.1l-.2-.4c-1.4-3.4-2.2-5.4-2.2-5.4a84 84 0 01-4.5-19.7c0-.5-.1-1.1-.1-1.6a12.81 12.81 0 002-1.1s-4.6-46.8 0-51.8l.1-.1v-.1l.1-.1.2-.2.2-.3c.3-.3.5-.7.9-1.2 2.7-3.9 7.6-12.7 6.2-23.2-.1-.5-.1-.9-.2-1.4a26.19 26.19 0 00-2.9-8.1c-.2-1.1-.3-2.1-.4-3.2v-2.8a5.9 5.9 0 01.2-1.4v-.1a.75.75 0 01.1-.5v-.2a4.33 4.33 0 01.1-.5v-.2c.1-.2.1-.5.2-.7v-.1c.1-.2.1-.4.2-.6l.1-.2.2-.5.1-.2a2.19 2.19 0 01.3-.5l.1-.1a2.09 2.09 0 01.4-.6l.1-.2.3-.5.2-.2.3-.4.2-.2.6-.6c5.5-5 29.9-41.9 29.9-41.9s5.9-8.3 5.9-13.7c-.3-.3 10.2-35 9.1-45.6zM768 411.6c-.6-5.7-1.2-12.7-1.8-20l9.5 14.8s-.9 4.6-7.7 5.2z" transform="translate(-.05 -.08)" fill="url(#d)"/><path d="M668.65 408.42s-5.7-9-14.3-.8-14.7 35.4-14.7 35.4-3.3 22 7.7 16.3c0 0 13-18.3 16.7-19.1s7.7-11 7.7-11zM729.75 430.42s-7.7-3.7-10.2-.8-10.6 31.3-10.6 31.3-2.4 18.7 5.7 17.9 22.4-30.2 22.4-30.2z" fill="#493545"/><path d="M729.75 430.42s-7.7-3.7-10.2-.8-10.6 31.3-10.6 31.3-2.4 18.7 5.7 17.9 22.4-30.2 22.4-30.2z" opacity=".05" style="isolation:isolate"/><path d="M756.65 375.02l17.5 27.3s-1.2 6.1-11.8 4.9l-36.3 22.7s-3.2 27.8 6.9 25.3c1.6-.4 13-12.2 21.2-11.4l48.1-18.7s11.4-6.5 5.3-28.1-26.3-71.6-26.3-71.6l-31.9 17.9z" fill="#3e3d77"/><path d="M756.65 375.02l17.5 27.3s-1.2 6.1-11.8 4.9l-36.3 22.7s-3.2 27.8 6.9 25.3c1.6-.4 13-12.2 21.2-11.4l48.1-18.7s11.4-6.5 5.3-28.1-26.3-71.6-26.3-71.6l-31.9 17.9z" opacity=".05" style="isolation:isolate"/><path d="M767.65 415.32c2.4 15.5-11.4 16.7-11.4 16.7s-62.3 1.2-69.7-.4-17.1 2.8-17.1 2.8c-12.6-7.7-2.4-26.9-2.4-26.9s26.1-.8 32.2-2 37.1-2.9 37.1-2.9-2.4-15.1-18.7-53.4c-11.1-26-3-41.3 3.4-48.4a26.29 26.29 0 015.6-4.9l50.1 2.4a48.32 48.32 0 00.3 7.6 80.58 80.58 0 006.7 25c-2.8 0-21.2 17.1-21.2 17.1s2.6 51.8 5.1 67.3z" fill="#3e3d77"/><path d="M670.65 409.22s26.1-.8 32.2-2 37.1-2.8 37.1-2.8-2.4-15.1-18.7-53.4c-11.1-26-3-41.3 3.4-48.4a26.29 26.29 0 015.6-4.9l46.4 2.3v-1.5l-50.1-2.4a26.29 26.29 0 00-5.6 4.9c-6.3 7.1-14.4 22.4-3.4 48.4 16.3 38.2 18.8 53.3 18.8 53.3s-31 1.6-37.1 2.8-32.2 2-32.2 2-10.2 19.2 2.4 26.9a8.41 8.41 0 011-.4c-8.4-8.6.2-24.8.2-24.8z" opacity=".1" style="isolation:isolate"/><path fill="#493545" d="M719.95 146.52h25.3v63.9h-25.3z"/><path opacity=".1" style="isolation:isolate" d="M719.95 146.52h25.3v63.9h-25.3z"/><path d="M759.65 137.12a2.83 2.83 0 012.4 1.5 8 8 0 01.6 3l1.6 19.8a12.17 12.17 0 00.7 3.8c.7 1.3 1.8 1.5 2.7 2.4 1.8 1.7 2.3 6.1 1.8 9.6s-1.7 6.6-2.6 9.8c-1.4 4.6-2.3 9.8-4.2 13.6s-5.4 6-7.6 2.7-1.9-9.8-2.4-15.2c-.7-9-4.2-16.8-4.5-25.8-.2-7.3 1.8-14.2 3-21.1.9-4.8.9-10.6 2.2-14.8 1.1 5 3.2 9.8 6.3 10.7z" fill="#493545"/><path d="M759.65 137.12a2.83 2.83 0 012.4 1.5 8 8 0 01.6 3l1.6 19.8a12.17 12.17 0 00.7 3.8c.7 1.3 1.8 1.5 2.7 2.4 1.8 1.7 2.3 6.1 1.8 9.6s-1.7 6.6-2.6 9.8c-1.4 4.6-2.3 9.8-4.2 13.6s-5.4 6-7.6 2.7-1.9-9.8-2.4-15.2c-.7-9-4.2-16.8-4.5-25.8-.2-7.3 1.8-14.2 3-21.1.9-4.8.9-10.6 2.2-14.8 1.1 5 3.2 9.8 6.3 10.7z" opacity=".1" style="isolation:isolate"/><path d="M652.75 109.02l-9.8 8.1s-1.2-1.4-2.9-3.6c-6.8-8.7-22.4-30.4-11.4-34.3s19.8 17.3 22.8 26.1c.9 2.3 1.3 3.7 1.3 3.7zM829.15 106.22c-4.1 6.1-9.8 0-9.8 0s-.7-1.1-1.8-2.9c-3.3-5.7-9.9-18.2-5.6-23.2 5-5.7 17.4 13.7 17.8 22.8a5.44 5.44 0 01-.6 3.3zM728.95 172.12s8.2 26.1 5.7 33.8 17.5 16.7 17.5 16.7h22.8s8.2-16.7 6.1-21.6-19.5-8.5-19.5-8.5-10.2 0-9.8-27.3z" fill="#ec8c9c"/><path d="M652.75 109.02l-9.8 8.1s-1.2-1.4-2.9-3.6c3.5-.6 9.1-5.8 11.5-8.2.8 2.3 1.2 3.7 1.2 3.7zM829.15 106.22c-4.1 6.1-9.8 0-9.8 0s-.7-1.1-1.8-2.9l.1-.4c2.6 1.9 10.8.3 12.1 0a5.44 5.44 0 01-.6 3.3zM776.85 306.02c-12.6 5.8-53.5-4.5-56-5.1a26.29 26.29 0 015.6-4.9l50.1 2.4a48.79 48.79 0 00.3 7.6z" opacity=".1" style="isolation:isolate"/><path d="M734.25 194.52s-9.8 3.3-23.6-9.4c0 0-31-30.5-33-37.9l-24-42s-10.2 11-14.3 9.4l26.9 46.8s4.9 9 9.4 11.4c0 0 33.4 42.8 33.8 51.3s15 31.5 15 31.5 4.9 37.1-3.7 43.6c0 0 47.7 12.2 57.8 4.1 0 0-4.5-46 0-50.9 0 0 13.8-16.3 4.5-34.2 0 0-2-9.8 3.3-14.7s28.9-41.1 28.9-41.1 5.7-8.1 5.7-13.4c0 0 10.6-35.8 9-45.2 0 0-9.4 2-12.2 0 0 0-13.8 42-15.5 43.6s-13 34.6-28.1 38.3-17.5 5.3-17.5 5.3 29.3 18.3 15.1 26.5-37.5-23-37.5-23z" fill="#192080"/><path d="M752.75 178.42a74.53 74.53 0 01-.6-11.6l-22.8 6.9a25.42 25.42 0 011.4 4.7c2.6 1.1 6.1 3.9 9.2 3.9a20.85 20.85 0 0012.8-3.9z" opacity=".1" style="isolation:isolate"/><circle cx="739.54" cy="159.92" r="21.2" fill="#ec8c9c"/><path d="M714.35 127.32c-4.7.4-9.9 3.6-9.6 8.2.1 2.6 1.9 4.7 2.7 7.2 1.8 6-2.3 11.9-5.9 17s-7 11.8-3.9 17.2a33.66 33.66 0 002.9 3.7c3.8 5.2 3.8 12.1 5.5 18.4a32.16 32.16 0 0037.8 23 20.86 20.86 0 01-4.3-13.6c.2-3.6 1.4-7.3 0-10.6-1.8-4.2-7-5.9-9.7-9.6s-2.5-8.8-1.2-13.2 3.5-8.5 4.6-13c.3-1.3.6-2.6 1-3.9 1.9-5.3 7.5-8.4 13-9.8s11.3-1.4 16.7-3.2 10.6-5.9 11.2-11.5c-4.5 1.8-8.7-2.9-13.1-5.1-7.2-3.6-15.4-.2-22.8.6-8.4 1.1-16.4-2.4-24.9-1.8z" opacity=".1" style="isolation:isolate"/><path d="M713.95 126.52c-4.7.4-9.9 3.6-9.6 8.2.1 2.6 1.9 4.7 2.7 7.2 1.8 6-2.3 11.9-5.9 17s-7 11.8-3.9 17.2a33.66 33.66 0 002.9 3.7c3.8 5.2 3.8 12.1 5.5 18.4a32.16 32.16 0 0037.8 23 20.86 20.86 0 01-4.3-13.6c.2-3.6 1.4-7.3 0-10.6-1.8-4.2-7-5.9-9.7-9.6s-2.5-8.8-1.2-13.2 3.5-8.5 4.6-13c.3-1.3.6-2.6 1-3.9 1.9-5.3 7.5-8.4 13-9.8s11.3-1.4 16.7-3.2 10.6-5.9 11.2-11.5c-4.5 1.8-8.7-2.9-13.1-5.1-7.2-3.6-15.4-.2-22.8.6-8.4 1-16.4-2.5-24.9-1.8z" fill="#493545"/><path d="M760.55 207.02s8.5 7.6 10.2 10.9M778.85 252.22s-10.6 0-15.5 1.2-16.7 0-16.7 0" opacity=".1" style="isolation:isolate"/><g opacity=".1"><path d="M771.75 217.32a10.21 10.21 0 01-2.9 1.1 11.11 11.11 0 007.8-1.1c14.3-8.1-15.1-26.5-15.1-26.5h-4.9c0 .1 29.3 18.4 15.1 26.5zM830.05 104.42c0-.3-.1-.5-.1-.7-1.7.3-3.4.6-5.1.8a18.13 18.13 0 005.2-.1zM725.65 299.22c8.5-6.5 3.7-43.6 3.7-43.6s-14.7-22.8-15.1-31.4-33.8-51.3-33.8-51.3c-4.5-2.4-9.4-11.4-9.4-11.4s-27.7-45.2-31.8-46.8l26.9 46.8s4.9 9 9.4 11.4c0 0 33.4 42.8 33.8 51.3s15.1 31.4 15.1 31.4 4.9 37.1-3.7 43.6c0 0 29.3 7.5 46.8 6.8-17.5-.5-41.9-6.8-41.9-6.8zM734.45 194.82l-.2-.3c-.3.1-.6.1-.8.2a3.4 3.4 0 001 .1z"/></g><g opacity=".1"><path d="M829.95 103.72l-.3.1c-.4 12.5-9.1 41.9-9.1 41.9 0 5.3-5.7 13.4-5.7 13.4s-23.6 36.3-28.9 41.1-3.3 14.7-3.3 14.7v.1c-.2-3.3.2-8.4 3.6-11.5 5.3-4.9 28.9-41.1 28.9-41.1s5.7-8.1 5.7-13.4c.1-.1 10.7-35.9 9.1-45.3zM778.25 249.12c.6 3.5.2-.2.4 3.3 0 0 10-11.7 7.3-26.2.8 12.9-7.7 22.9-7.7 22.9z"/></g><ellipse cx="469.75" cy="620.32" rx="427.7" ry="41.1" fill="#6c63ff" opacity=".1" style="isolation:isolate"/><path d="M303.95 578.72s-14.6-49.5 2.7-85.8a77.41 77.41 0 006.3-49 129.74 129.74 0 00-6.9-23" fill="none" stroke="#535461" stroke-miterlimit="10" stroke-width="2"/><path d="M316.85 397.82c0 6.1-11 23.6-11 23.6s-11-17.6-11-23.6a11.03 11.03 0 0122-1.6v1.6zM334.95 431.42c-3.3 5.1-22 13.9-22 13.9s.3-20.7 3.6-25.8a11 11 0 0119.2 10.6 5.67 5.67 0 01-.8 1.3zM334.15 488.82c-5.4 2.7-26 .8-26 .8s10.8-17.7 16.2-20.4a11.01 11.01 0 1111.3 18.9c-.5.2-.9.5-1.5.7zM323.85 532.02c-4.9 3.6-25.5 5.2-25.5 5.2s7.6-19.3 12.5-22.9a10.93 10.93 0 0115.1 3.7 11.24 11.24 0 01-2.1 14zM289.85 446.42c4.4 4.2 24.6 8.6 24.6 8.6s-5-20.1-9.3-24.3a11 11 0 10-16.4 14.6 5.73 5.73 0 001.1 1.1zM278.35 497.22c5.4 2.7 26 .8 26 .8s-10.7-17.7-16.1-20.4a11 11 0 00-9.9 19.6zM273.95 548.12c4.9 3.6 25.5 5.2 25.5 5.2s-7.6-19.3-12.5-22.9a11 11 0 10-14.5 16.5l1.5 1.2z" fill="#6c63ff"/><path d="M316.85 397.82c0 6.1-11 23.6-11 23.6s-11-17.6-11-23.6a11.03 11.03 0 0122-1.6v1.6zM334.95 431.42c-3.3 5.1-22 13.9-22 13.9s.3-20.7 3.6-25.8a11 11 0 0119.2 10.6 5.67 5.67 0 01-.8 1.3zM334.15 488.82c-5.4 2.7-26 .8-26 .8s10.8-17.7 16.2-20.4a11.01 11.01 0 1111.3 18.9c-.5.2-.9.5-1.5.7zM323.85 532.02c-4.9 3.6-25.5 5.2-25.5 5.2s7.6-19.3 12.5-22.9a10.93 10.93 0 0115.1 3.7 11.24 11.24 0 01-2.1 14zM289.85 446.42c4.4 4.2 24.6 8.6 24.6 8.6s-5-20.1-9.3-24.3a11 11 0 10-16.4 14.6 5.73 5.73 0 001.1 1.1zM278.35 497.22c5.4 2.7 26 .8 26 .8s-10.7-17.7-16.1-20.4a11 11 0 00-9.9 19.6zM273.95 548.12c4.9 3.6 25.5 5.2 25.5 5.2s-7.6-19.3-12.5-22.9a11 11 0 10-14.5 16.5l1.5 1.2z" fill="#192080"/><path d="M598.65 579.42s-14.6-49.5 2.7-85.8a77.41 77.41 0 006.3-49 129.74 129.74 0 00-6.9-23" fill="none" stroke="#535461" stroke-miterlimit="10" stroke-width="2"/><path d="M611.45 398.52c0 6.1-11 23.6-11 23.6s-11-17.6-11-23.6a11 11 0 0111.8-10.2 11.22 11.22 0 0110.2 10.2zM629.65 432.12c-3.3 5.1-22 13.9-22 13.9s.3-20.7 3.6-25.8a11 11 0 0119.2 10.6 14.8 14.8 0 01-.8 1.3zM628.85 489.52c-5.4 2.7-26 .8-26 .8s10.8-17.7 16.2-20.4a11 11 0 0111.4 18.8 11.94 11.94 0 01-1.6.8zM618.45 532.72c-4.9 3.6-25.5 5.2-25.5 5.2s7.6-19.3 12.5-22.9a10.93 10.93 0 0115.1 3.7 11.24 11.24 0 01-2.1 14zM584.55 447.22c4.3 4.2 24.6 8.6 24.6 8.6s-5-20.1-9.3-24.3a11 11 0 00-16.4 14.6l1.1 1.1zM573.05 497.92c5.4 2.7 26 .8 26 .8s-10.8-17.7-16.2-20.4a11 11 0 00-9.8 19.6zM568.65 548.82c4.9 3.6 25.5 5.2 25.5 5.2s-7.6-19.3-12.5-22.9a10.93 10.93 0 00-15.1 3.7 11.13 11.13 0 002.1 14z" fill="#6c63ff"/><path d="M611.05 398.72c0 6.2-11.2 24.1-11.2 24.1s-11.2-17.9-11.2-24.1a11.27 11.27 0 0112-10.4 11.52 11.52 0 0110.4 10.4zM629.55 433.02c-3.4 5.2-22.5 14.2-22.5 14.2s.3-21.1 3.7-26.3a11.26 11.26 0 1119.7 10.9 12.49 12.49 0 00-.9 1.2zM628.85 489.52c-5.4 2.7-26 .8-26 .8s10.8-17.7 16.2-20.4a11 11 0 0111.4 18.8 11.94 11.94 0 01-1.6.8zM618.45 532.72c-4.9 3.6-25.5 5.2-25.5 5.2s7.6-19.3 12.5-22.9a10.93 10.93 0 0115.1 3.7 11.24 11.24 0 01-2.1 14zM584.55 447.22c4.3 4.2 24.6 8.6 24.6 8.6s-5-20.1-9.3-24.3a11 11 0 00-16.4 14.6l1.1 1.1zM573.05 497.92c5.4 2.7 26 .8 26 .8s-10.8-17.7-16.2-20.4a11 11 0 00-9.8 19.6zM568.65 548.82c4.9 3.6 25.5 5.2 25.5 5.2s-7.6-19.3-12.5-22.9a10.93 10.93 0 00-15.1 3.7 11.13 11.13 0 002.1 14z" fill="#192080"/><path d="M669.85 15.22h-6.3a4.405 4.405 0 10.4-8.8h-51.3a4.44 4.44 0 00-4.2 4.6 4.36 4.36 0 004.2 4.2h6.3a4.44 4.44 0 00-4.2 4.6 4.36 4.36 0 004.2 4.2h-8.8a4.405 4.405 0 00-.4 8.8h51.3a4.405 4.405 0 10.4-8.8h8.4a4.44 4.44 0 004.2-4.6 4.36 4.36 0 00-4.2-4.2zM375.65 40.92h-4.8a3.353 3.353 0 00.3-6.7h-39.1a3.35 3.35 0 000 6.7h4.8a3.353 3.353 0 00-.3 6.7h-6.3a3.353 3.353 0 00-.3 6.7h39a3.353 3.353 0 10.3-6.7h6.3a3.42 3.42 0 003.2-3.5 3.2 3.2 0 00-3.1-3.2z" fill="#dee3f3" opacity=".5" style="isolation:isolate"/><path d="M124.25 617.82s-25.4-5.1-32.2-11.9-37.2-18.6-40.6-10.1-45.7 37.2-16.9 42.3 67.7 6.8 76.1 3.4 13.6-23.7 13.6-23.7z" fill="#a8a8a8"/><path d="M34.55 635.02c28.8 5.1 67.7 6.8 76.1 3.4 6.4-2.6 10.9-15 12.7-20.7l.9.2s-5.1 20.3-13.5 23.7-47.4 1.7-76.2-3.4c-8.3-1.5-10.7-4.9-9.8-9.3.7 2.8 3.6 5 9.8 6.1z" opacity=".2" style="isolation:isolate"/><path d="M894.75 522.42s8.4 11-3.9 27.5-22.3 30.5-18.3 40.8c0 0 18.5-30.7 33.5-31.2 15.2-.3 5.3-18.6-11.3-37.1z" fill="#192080"/><path d="M894.75 522.42a15.44 15.44 0 011.7 3.4c14.7 17.2 22.5 33.3 8.4 33.7-13.1.4-28.9 23.9-32.7 29.8a5 5 0 00.5 1.3s18.5-30.7 33.5-31.2 5.2-18.5-11.4-37z" fill="#192080"/><path d="M910.35 536.42c0 3.9-.4 7-1 7s-1-3.1-1-7 .5-2 1.1-2 .9-1.8.9 2z" fill="#ffd037"/><path d="M915.75 541.02c-3.4 1.8-6.3 3-6.6 2.5s2.3-2.3 5.7-4.2 2.1-.5 2.3 0 1.9-.1-1.4 1.7z" fill="#ffd037"/><path d="M850.55 522.42s-8.4 11 3.9 27.5 22.3 30.5 18.3 40.8c0 0-18.5-30.7-33.5-31.2s-5.3-18.6 11.3-37.1z" fill="#192080"/><path d="M850.55 522.42a15.44 15.44 0 00-1.7 3.4c-14.7 17.2-22.5 33.3-8.4 33.7 13.1.4 28.9 23.9 32.7 29.8a5 5 0 01-.5 1.3s-18.5-30.7-33.5-31.2-5.2-18.5 11.4-37z" opacity=".1" style="isolation:isolate"/><path d="M834.95 536.42c0 3.9.4 7 1 7s1-3.1 1-7-.5-2-1.1-2-.9-1.8-.9 2z" fill="#ffd037"/><path d="M829.55 541.02c3.4 1.8 6.3 3 6.6 2.5s-2.3-2.3-5.7-4.2-2-.5-2.3 0-1.9-.1 1.4 1.7z" fill="#ffd037"/><path d="M837.65 589.32s23.4-.7 30.5-5.8 36-11 37.8-3 35.2 40.1 8.8 40.3-61.5-4.1-68.5-8.4-8.6-23.1-8.6-23.1z" fill="#a8a8a8"/><path d="M915.15 618.12c-26.5.2-61.5-4.1-68.5-8.4-5.4-3.3-7.5-15-8.2-20.4h-.8s1.5 18.9 8.5 23.2 42.1 8.6 68.5 8.4c7.6-.1 10.3-2.8 10.1-6.8-1 2.5-3.9 4-9.6 4z" opacity=".2" style="isolation:isolate"/><path d="M177.75 74.52h-6.3a4.405 4.405 0 00.4-8.8h-51.3a4.44 4.44 0 00-4.2 4.6 4.36 4.36 0 004.2 4.2h6.3a4.44 4.44 0 00-4.2 4.6 4.36 4.36 0 004.2 4.2h-8.8a4.44 4.44 0 00-4.2 4.6 4.36 4.36 0 004.2 4.2h50.9a4.405 4.405 0 00.4-8.8h8.4a4.4 4.4 0 000-8.8z" fill="#dee3f3" opacity=".5" style="isolation:isolate"/></svg>